<mxfile host="app.diagrams.net" modified="2024-01-11T01:42:41.678Z" agent="Mozilla/5.0 (Windows NT 10.0; Win64; x64) AppleWebKit/537.36 (KHTML, like Gecko) Chrome/120.0.0.0 Safari/537.36 Edg/120.0.0.0" etag="igXoVxWw6ePoQ0o3EPqM" version="22.1.18" type="github">
  <diagram name="第 1 页" id="IRJxY7KZM5IqcakMu77M">
    <mxGraphModel dx="1057" dy="888" grid="1" gridSize="10" guides="1" tooltips="1" connect="1" arrows="1" fold="1" page="1" pageScale="1" pageWidth="827" pageHeight="1169" math="1" shadow="0">
      <root>
        <mxCell id="0" />
        <mxCell id="1" parent="0" />
        <mxCell id="gRTbHUQzDtAFuBZ8Pfh3-236" value="" style="rounded=1;whiteSpace=wrap;html=1;fillColor=none;dashed=1;strokeWidth=1;fontFamily=宋体;fontSize=15;" parent="1" vertex="1">
          <mxGeometry x="560" y="370" width="270" height="200" as="geometry" />
        </mxCell>
        <mxCell id="gRTbHUQzDtAFuBZ8Pfh3-237" value="" style="rounded=1;whiteSpace=wrap;html=1;fillColor=none;dashed=1;strokeWidth=1;fontFamily=宋体;fontSize=15;" parent="1" vertex="1">
          <mxGeometry x="850" y="370" width="190" height="200" as="geometry" />
        </mxCell>
        <mxCell id="gRTbHUQzDtAFuBZ8Pfh3-235" value="" style="shape=parallelogram;perimeter=parallelogramPerimeter;whiteSpace=wrap;html=1;fixedSize=1;fontFamily=宋体;fontSize=15;fontColor=default;size=90;strokeColor=#FF8000;fillColor=none;" parent="1" vertex="1">
          <mxGeometry x="690" y="420.43" width="130" height="89.15" as="geometry" />
        </mxCell>
        <mxCell id="gRTbHUQzDtAFuBZ8Pfh3-233" value="" style="shape=parallelogram;perimeter=parallelogramPerimeter;whiteSpace=wrap;html=1;fixedSize=1;fontFamily=宋体;fontSize=15;fontColor=default;size=110;strokeColor=#FF8000;fillColor=none;" parent="1" vertex="1">
          <mxGeometry x="577.5" y="409.15" width="150" height="110" as="geometry" />
        </mxCell>
        <mxCell id="gRTbHUQzDtAFuBZ8Pfh3-175" style="edgeStyle=none;shape=connector;rounded=0;orthogonalLoop=1;jettySize=auto;html=1;exitX=1;exitY=1;exitDx=0;exitDy=0;entryX=0.833;entryY=0.5;entryDx=0;entryDy=0;entryPerimeter=0;labelBackgroundColor=default;strokeColor=#808080;align=center;verticalAlign=middle;fontFamily=宋体;fontSize=15;fontColor=default;endArrow=none;endFill=0;dashed=1;" parent="1" source="gRTbHUQzDtAFuBZ8Pfh3-76" target="gRTbHUQzDtAFuBZ8Pfh3-74" edge="1">
          <mxGeometry relative="1" as="geometry" />
        </mxCell>
        <mxCell id="gRTbHUQzDtAFuBZ8Pfh3-5" value="" style="rounded=1;whiteSpace=wrap;html=1;fillColor=none;dashed=1;strokeWidth=1;fontFamily=宋体;movable=1;resizable=1;rotatable=1;deletable=1;editable=1;locked=0;connectable=1;fontSize=15;" parent="1" vertex="1">
          <mxGeometry x="180" y="299.15" width="110" height="360" as="geometry" />
        </mxCell>
        <mxCell id="gRTbHUQzDtAFuBZ8Pfh3-167" style="edgeStyle=none;shape=connector;rounded=0;orthogonalLoop=1;jettySize=auto;html=1;exitX=1;exitY=1;exitDx=0;exitDy=0;entryX=0.833;entryY=0.5;entryDx=0;entryDy=0;entryPerimeter=0;labelBackgroundColor=default;strokeColor=#808080;align=center;verticalAlign=middle;fontFamily=宋体;fontSize=15;fontColor=default;endArrow=classicThin;endFill=1;dashed=1;" parent="1" source="gRTbHUQzDtAFuBZ8Pfh3-37" target="gRTbHUQzDtAFuBZ8Pfh3-57" edge="1">
          <mxGeometry relative="1" as="geometry" />
        </mxCell>
        <mxCell id="gRTbHUQzDtAFuBZ8Pfh3-109" value="" style="rounded=1;whiteSpace=wrap;html=1;fillColor=none;dashed=1;strokeWidth=1;fontFamily=宋体;fontSize=15;direction=east;" parent="1" vertex="1">
          <mxGeometry x="440" y="880" width="80" height="160" as="geometry" />
        </mxCell>
        <mxCell id="gRTbHUQzDtAFuBZ8Pfh3-90" value="" style="rounded=1;whiteSpace=wrap;html=1;fillColor=none;dashed=1;strokeWidth=1;fontFamily=宋体;fontSize=15;direction=east;" parent="1" vertex="1">
          <mxGeometry x="330" y="860" width="80" height="200" as="geometry" />
        </mxCell>
        <mxCell id="gRTbHUQzDtAFuBZ8Pfh3-78" value="" style="rounded=1;whiteSpace=wrap;html=1;fillColor=none;dashed=1;strokeWidth=1;fontFamily=宋体;fontSize=15;" parent="1" vertex="1">
          <mxGeometry x="310" y="343.72999999999996" width="110" height="270.85" as="geometry" />
        </mxCell>
        <mxCell id="gRTbHUQzDtAFuBZ8Pfh3-260" style="edgeStyle=none;shape=connector;rounded=0;orthogonalLoop=1;jettySize=auto;html=1;exitX=0;exitY=0;exitDx=0;exitDy=0;entryX=0.75;entryY=0;entryDx=0;entryDy=0;labelBackgroundColor=default;strokeColor=#b85450;align=center;verticalAlign=middle;fontFamily=Helvetica;fontSize=11;fontColor=default;endArrow=none;endFill=0;dashed=1;fillColor=#f8cecc;" parent="1" source="gRTbHUQzDtAFuBZ8Pfh3-77" target="gRTbHUQzDtAFuBZ8Pfh3-233" edge="1">
          <mxGeometry relative="1" as="geometry" />
        </mxCell>
        <mxCell id="gRTbHUQzDtAFuBZ8Pfh3-262" style="edgeStyle=none;shape=connector;rounded=0;orthogonalLoop=1;jettySize=auto;html=1;exitX=1;exitY=0;exitDx=0;exitDy=0;labelBackgroundColor=default;strokeColor=#b85450;align=center;verticalAlign=middle;fontFamily=Helvetica;fontSize=11;fontColor=default;endArrow=none;endFill=0;entryX=0.75;entryY=0;entryDx=0;entryDy=0;dashed=1;fillColor=#f8cecc;" parent="1" source="gRTbHUQzDtAFuBZ8Pfh3-77" target="gRTbHUQzDtAFuBZ8Pfh3-233" edge="1">
          <mxGeometry relative="1" as="geometry">
            <mxPoint x="480" y="550" as="targetPoint" />
          </mxGeometry>
        </mxCell>
        <mxCell id="gRTbHUQzDtAFuBZ8Pfh3-77" value="" style="rounded=0;whiteSpace=wrap;html=1;direction=south;fillColor=#b1ddf0;strokeColor=#10739e;fontFamily=宋体;fontSize=15;" parent="1" vertex="1">
          <mxGeometry x="380" y="390" width="20" height="120" as="geometry" />
        </mxCell>
        <mxCell id="gRTbHUQzDtAFuBZ8Pfh3-174" style="edgeStyle=none;shape=connector;rounded=0;orthogonalLoop=1;jettySize=auto;html=1;exitX=1;exitY=0;exitDx=0;exitDy=0;entryX=1;entryY=0;entryDx=0;entryDy=0;labelBackgroundColor=default;strokeColor=#808080;align=center;verticalAlign=middle;fontFamily=宋体;fontSize=15;fontColor=default;endArrow=none;endFill=0;dashed=1;" parent="1" source="gRTbHUQzDtAFuBZ8Pfh3-75" target="gRTbHUQzDtAFuBZ8Pfh3-76" edge="1">
          <mxGeometry relative="1" as="geometry" />
        </mxCell>
        <mxCell id="gRTbHUQzDtAFuBZ8Pfh3-286" style="edgeStyle=none;shape=connector;rounded=0;orthogonalLoop=1;jettySize=auto;html=1;exitX=0;exitY=0;exitDx=0;exitDy=0;entryX=0;entryY=1;entryDx=0;entryDy=0;dashed=1;labelBackgroundColor=default;strokeColor=#b85450;align=center;verticalAlign=middle;fontFamily=Helvetica;fontSize=11;fontColor=default;endArrow=none;endFill=0;fillColor=#f8cecc;" parent="1" source="gRTbHUQzDtAFuBZ8Pfh3-59" target="gRTbHUQzDtAFuBZ8Pfh3-77" edge="1">
          <mxGeometry relative="1" as="geometry" />
        </mxCell>
        <mxCell id="gRTbHUQzDtAFuBZ8Pfh3-59" value="" style="rounded=0;whiteSpace=wrap;html=1;direction=south;fillColor=#d5e8d4;strokeColor=#82b366;fontFamily=宋体;fontSize=15;" parent="1" vertex="1">
          <mxGeometry x="250" y="369.15" width="20" height="180" as="geometry" />
        </mxCell>
        <mxCell id="gRTbHUQzDtAFuBZ8Pfh3-62" value="" style="rounded=0;whiteSpace=wrap;html=1;direction=south;fillColor=#ffe6cc;strokeColor=#d79b00;fontFamily=宋体;fontSize=15;" parent="1" vertex="1">
          <mxGeometry x="275.77" y="890" width="20" height="180" as="geometry" />
        </mxCell>
        <mxCell id="gRTbHUQzDtAFuBZ8Pfh3-61" value="" style="rounded=0;whiteSpace=wrap;html=1;direction=south;fillColor=#fff2cc;strokeColor=#d6b656;fontFamily=宋体;fontSize=15;" parent="1" vertex="1">
          <mxGeometry x="230" y="876.5" width="20" height="180" as="geometry" />
        </mxCell>
        <mxCell id="gRTbHUQzDtAFuBZ8Pfh3-60" value="" style="rounded=0;whiteSpace=wrap;html=1;direction=south;fillColor=#d5e8d4;strokeColor=#82b366;fontFamily=宋体;fontSize=15;" parent="1" vertex="1">
          <mxGeometry x="210" y="409.15" width="20" height="180" as="geometry" />
        </mxCell>
        <mxCell id="gRTbHUQzDtAFuBZ8Pfh3-3" value="" style="shape=image;imageAspect=0;aspect=fixed;verticalLabelPosition=bottom;verticalAlign=top;strokeColor=#66B2FF;fillColor=default;image=data:image/png,iVBORw0KGgoAAAANSUhEUgAAAgEAAABWCAYAAABW8kUHAAAAAXNSR0IArs4c6QAAAARnQU1BAACxjwv8YQUAAAAJcEhZcwAADsMAAA7DAcdvqGQAAD4ySURBVHhe7d0tmGvJVsbxkUgkEolEIpFIJBKJROKQV16JRCKRSCQSiUQikVcO/Zs+f86amp3udHdyOknX+8x+9tpVq9Z3fWQnfeann+8c//qvz9fGxsbGxsbG23D3h4B//Mfna2NjY2NjY+Nt2IeAL4I//OHnn//rv749bGxsbGxsPGEfAr4I/vmff/75L//y28PGxsbGxsYTHuIQ8Ld/++1h4yT2IWBjY2NjY8XdHwIcAPYh4HXsQ8DGxsbGxoq7PAT4btumBvsQcB72IWBjY2NjY8VdHgLmhjYPAf/7vz///O///kxv/Br7ELCxsbGxseKhDgF7ozuNl2Ijfg5QGxsbGxtfC3d5CPj97/ch4K3wA8pTsfnTP91/PrixsbHxFXGXh4C5oTkA/M3fPNMvHQL+4i++9ka3HgL+/u+//0uLDgH7a5SNjY2Nr4eHOAREv3QI+IobnTcmbfRi9ud//kzDX/3Vc7zgj/5oHwI2NjY2viLu8hAwN/73HAL863n/9E/P9CNDbGz+4C4GQZw6BPz0VAXRGxsbGxtfB3d/CPjrv/71IWB+2p2fbuch4D//89cb4qPipUMAeh8Crof9ZmVj42vBvtIPrH39/D//80zfOu7yEOA3AG387tG/+933je6///t5cwvzEPBv//b1DgH/8A+/9vlP/uTXhwCx27gM1trb2Nh4fFhvW1OttffyG7S7XKrmxj/p+Wn36BBQgty/2iEAPX2en/7R8W18HGvt+erJV1AbGxuPC/vQPATcy9vAL3MImJvefGPwyLDxewMQnc9eWYmHONic0P5aYOMyODqAatvY2Hhc2If8GBv2IeDK8L3/PAT82Z890/MQ4FXMqUOADe8rHAJ8bWLzh3kIaJMSr+j4PHdw2Hgfjg4Bvi/c2Ni4b/gA9Xd/90z/x3983/TBPtQbVXO+v8y6dYyl6n4gwPMQ0OY2DwFOYacOATa8P/7jZ/qRITZHhwAb0noI6N9a+Cq/l7gmimk/DEL3qcAici+Lw8bGxq8xD/j2k/YhsG52CMDTfnPr+ObOfUGw/foS1kOAv3mHDgGSBuj+LNCYEvnIOHUIKDbzEFAxi9E+BHwMvYWatdchwH3moUUDfMLw6WJjY+M2sR4C5lpp79mHgB8EwS748xDgNX8JOjoElCCvbeJ7ZMxDgD+lzOd/+Zfv8VgPAetfEWy8HUe15w0LzEOARcI/2hTk4F4WjktA/d3Ln1HdMvaPTn8c1kNAHzqhNXWlbx3f3LlNeG169D+2EeCjQ4ANrwRZdNGS1g/hSoo/j4vvkSE2veZH57PiLR4VdTHEvw8B74PDlQX56BDQ5q6mi6+3Lr3RAvQjHgKKywpxEKuNj8FBcv/m5Howj6tTb+rWddT+0h7TD6zR7Te3/hXgN3duEzaudZHo1+wtpD7VR89DQAmSwDa6eUqL75Ehfq7ofBaH4tEn02KIL3rjbRA38XSJb/94CLrN3b34iv+MNfoRDwHFBXzy70CgvTckG2/DjKM5ey+/M1Hf88d09wA2t442t0E72td/7TG9eUX3A+vW2FvFN3c+F0efEsBfAfgUAS2uBbugukefcwhA448PTum/R0xfFG7F657PirPvr8TUJ9Bea8146tuL9Pnwhqk6FetZr23u7sVX/OcPVLU/4j/axC+xAHM0H7UXl423YcbR3L6lONoUW7dXqPk2yhX6Phutn+7ZI7brIaD+5nk/tp6HgOj59u8W8WTq5+PU66y5SHjNIuhHhwDPIOhoCTIO7fVNY8hYDwGKtVc49w6+zu+Y+Xl0CBAnfeKpgGefe7HVf2rCbvwWYieeLRTu1V4LtpjO+BZ3QGt7NPBXLEA95aP2fQh4H245jmw5tW74AHKqT/3PDzGfAR887UXNW+DPegjQ3/y1h9Seb5M2vjkPt/bW5pubnwuv9Fsk/IDNK1SYxV3RS5BPTwXVvWThKUFeOaHnQqwfPceQPzfOewZf10+W5x4CjOs0W2z1V8hfDRajt/xordf+4mmSR1d7Ldju3hhE68MDk+9SYFfzKT0/GvztjVLzGKrBjbfDnL3VOM5NE2bdyf+pNWXOhUuDTW2+fRgEc8OeE7wRnfMWjO3fokFnp5ij+7+1ovMNnVx8ranQ+FvBkzmfDwESeJgBsjFV3IrKn1Dhw19Q3Y0BP2prfAmaCZUg9BwjgbNg7xl85VebFz/74ZkTbj6Lgz4xMob/nhuPBv2PEpu34tzDoU8B8ztBMWyhmLVXHfskVB4sRmg8cjb5LgX6kimXn/H1Dr/EBNiQPdXgxttxy3FkS+uG2raxdhA9dQjoEG0uXQNs6h/5YVt/Lt78hGwwb1sLQe22Jq6HAL6ZY9rtV238eIqBed7XrT5cNP5W8M3NZ/gkOE9F14SgVhiC1yltBghdcdvEFI/kGFtS3PGBoDfeOPRM6NEhAF+nvHtHfxHR35qfitM8BIi7nHsuTo3RXyF/NZjU5/gudnj71bAYtlC4F9O+chL7mQe0mnShtX0E5vC0m7x0a2/xc+i4Zt2zo/ldLIANzWl19lF/vwrEc/2qb8axHN8C2GW9huq6uuNDObchrq/fzZdrgM75l1LFq3/TA9iRDc1bdvGnNbG5PdvJ5p/5RHa+NA/1p6M+91vBT/OVJ8d/1IY4A4FukUBXCGinLCjY+tAlxR0fCHpyJShZJdR4fXPMTPC9owJtwh3FycIsDmLlboy7/mI7Y/MoB6S3whuiI99t9nPB7c/6qjH38jDbxRjci2+0mmwBiu+9oK9PHVCeo5tPdGbHNUCn+gF6xAKmDew8x9+3fC3zSLBJdpCS175GAnTxNWc/WjeXxFxT2e1DXm8k5d8FPpmrDTzV47XeVIlPet2zp/kJ82u85nB7CR+gr5m1s5+caj3f8qUY6E9H8xzPreAnJ7FewQhChl8bBaJXMC0SaEmoveKO1sfG7HTXBxKALnHo9Ucb+oyxAJlk+Oaiec+ocNukjuLEf3EQK3dj3PUXW3xQ+7VgQsnBLWIuZBPFeL5t0Vb7XEDcZ+2BT0Izvmjzb+V7L3ob1MbpIJNMtvZpSB3gc78G6BTDXn/KNbAhe7Srw5fAvq96EPVj0l5hW8fEq/mCrs+BoJjqL9ZiZ9yPhrx3YGlNaS7Zb8p56zWe6tGcuQZ62wnqqU29+WK/aYOfc5hd7SUQbc6Keeuog6257Tlf0qe/8c1zPLeCnxjfL5c5/iM2xL7/tJDO5LdgOIzUPhcM9FpU7vqMraictjplzoW4BDUePRN87+Dr/F5KLtc48Vmx2gzE0xh3/cW2eGhvslwD2XOLMC+O5oJ4sVusAI8a8vZFu0Ulnll71XE1CtqSZRxZbdJvRfaku0OKxbh6kFv6ofl16jvY5MGkzwWd4pIeNLChWGjPHvb26WxCexuKhdrcfgTwI99PQcyKSXk1rnXyKI5taqAmX9NxDfgQkg1qR85dMGvQHR+e6qS3mJfONV2tZWygyz5UXOk357PHnhg994ho7eJPrnuXZ7LM5eo2P/nUYe6W6vgnzjASCkhg9DVQwukWDDTdtU+6BQxt8zJmFpV2NP6CXYKS5RldghqPjg99ryhPfOVX+Sw24J6f+itaY9z1W0CckvFBsbkWyG6zujVM3y26LhAv7WpK3NEWhhYH/S0g7g6082BmUU9ubwXIWnNHfzpfQ3NIbrOvT4DoZJJfPTSGbpCHFmBy5uEv2cDPUweHiWrMOOONg/mpVXuf8rW1aE40d6FavSecWkP5deTvhJiVh1l3xXTGsRz34QeMr/1Hgl3ZoP59+q/uZo27i4FaXevk0gcYssg3p5oHYtnhnf5+WK6dHStt7GznJ7nuLocfvpJFPr6pW/vM463gFzMzNgN7lcixXi1dEiVcIFxoumtHW2jQAtibAzR+gW5yaBdwYwt2CUpWn7L0l6DGxIc+wjX8vyQU5lwo+MVP4JcLOpkWpwrXGHfj0MUQis25m9FbQfZnTwY+t1CzpRN6vqs9m3nfY89FQCzR2vr0Q1487mtO0ProLNZkrXzaLaDnwAEDP3vmAST7Vt1A59SBv7cQ9RUXdHEh65w50XelM0aA1h7NJijeYO6bs8C+2k9tDJP/kpD797xOF6vssSl3uJooxi+hOpIH9YE2rrVxxtGaCOZ4cvUfxevaKJd90mZDedaeTbXjcQjV1zwTt/jEsvp7C2b++nCjHul0iWUx1k4fWnvzGd3BCk+09uLr7iKL3HTgg+RqT5/xt4JfzMzYvhNhLHCkybviPUkJAkCPBEkwWiHQi6YzHgGsHa29oIL7DLyrBOkj16U9WfGh4ztKismnr8XwFtGCwJfpJ2h3Reez/lm4Fa/xM7bFxpiX4JDAjreg2NK5Qt9rOi8Fi2e5N/FbhPqUzg7xaZFFa1e71ai2WW/xuK85QSe3WJOD13N82tlzDiz8DnnZ6tli1av0Pm1P3dle/OeiW19zPBvB5o73NdDlUFF9NgYtVtHshuIHbOpAgq69GK2wbr33a5SXIMfpE7Nz1wE1lI/qKBqKaeuejWpFPNWRPHa4E4/yM+Mo3tFyTi7ba78G5h4w41MutbF32qG9uVT7kU94GqMNnXzjotWXGB8h3WC8uIgl2kXnjPG0Jx/UwPQn2liHb3VdjskyHp+7D2fsJLfx8ysH+Mg++l6I2fxg92TOs1EwAwLoo4WIM/rOnRQrSrhgu9B0JxcdjwDWjtZeUMF9Bt6FR1IkwQJBh/ZkxYeeSV0hQfrwHcEJv1itsXhvbM7BlN1iIrHsMXn6HlG7KzqfxYHfFW7F26RpzNwIX4LYpfM10MVWMsmWH/7MjQUP234ELAz8BhtJeouD/LIHzc5oY/qUqk2skhWP+6w9UJOu8mATlEO8FpUWSOOjXwPecmuRIZc9R69iXfLlMs7mAviz0cKnj13lqRgZj/c14CMvPeJq4UHPr/hc0NsMm5dYZEuva2vPlzkH8vkSmHLVZjmguwPia1jraOYxf8UT3SaQXvHKR3NCfYgB/fhn3aUD3Zjo6qt2NpyTt7eAbPYCW9gYzQ7znL3ZIYfT1trxVCcd5vgdX/JmDaZXrca3wt5VXeARA7FDJ6O4oh2WrWP0sIMN6PSLaTR+so13z39y8aWjPBgjHnO8C881oGbID7Ou2VMs4cmc78bOgBiEZvQKvPoE9FyQaVy08QxpktMtSGjJswBJSrZpZ7yxBRXc43F34ZFE48mlR/sc35i5eK9ogzXmCOS0iNLFfrBxzIn/HlgwFfgRWuCh+LGRr/LFN9B+FCd246twXfrEYMY2+sj/aZ+7GJ7CjG2TrJzSPWlwb6O4JtqUso9tLULyZ7PmexNXzDvJGzNrt5rS7tlYdexZu37AP/PQGAs+2Z7jc70G85Su6q+8ks0+tTJlaudTtV3Mm2vAHn3u5YYskOd54MNzBAtouoxnU7JmLNjOB22e8bCJPYCe7dkoXjZpkLNkfhTs6dO5/KWP/dXGa5h1xA/287FNkC/FuLlFb3NK7IBO+vldHIxzyYPckonWB+7G0OGe/drjuRToVUcw41Mu+cbu/Cj/2YQPzZ/qRJuDkbgdxQHwVXfW3/hWyEN1ZAw5xpHVgUBbtmqnH8+0LR7rOh/p4zceNrnjQRszYz9pOoxPHxmnbD8FNs8N/RTY06FVTc31lC3FD57M+W7sLLQSdlT4bdYlBQQi445ecTBKQhQ6+cZLYDrdKwS8MxH0CVaB1I4P3LPfnY4S5CKXLEl3Nb4x0TMooUW+DdfY+WbEJOiZjBYl+k3qj0DBkX8Exd3hg342SjRfxW7GY8aJr3ww3iJa4bqKAZ7GRBsDM6/VB5TPU9CHH9LTeDaQK79tLmyjG9RLh6tLIxvKG9vSi2aPuLIRH7snLW5ylL35VjyLrzk0FyN95ce45DaujV1M+P8Sphx5IsflmTwXneAeH52e8QIZLhCPfCxG5AA6PnZ6hg4gQbv40YXWlyw2ZLcLrU0fOeKZjuzHox0N5GWTsfEDGcXtaC06hfyp3iycyZVDeo5g3Fxk1US8xns2n/Of/OLv3uFAe2sOmXw0fuYRf28oZhz18VnNqDWyagf3aLa+JS6nkD3AluYvWp/cs9sapZ7pdC+m7DSGDLytAehkQPOnfGuPFqP4VkxdjXFpI5/extM529mBts5OHm348KDJc8cjL3ROvlnn63gXuR06z4E4tB+RpU6OIMdsAj5MPejWPHh6/G7s/JRTwVIEiopghcYZCatPcvEaUzBXHDkvgHSShTZWO+PxNCaZjS8p4C5hJpl+YxrrIneVFc3eyQeC0wlbG/nGA1tbzMUhWwHdQoDfcwl6bSE/gs2HjCOw3YIIdCo8OtnLnnxzjyaLn8UyXneXtuKUXrQFjC3Q6RnKuTi1adCzogWuRQdNT7lm/8wv5APUF9ii7SMoH9nAf0DzGfitDthavUXr6wDLNm3GoePx7F6c9a05ccfXmOStfCG7Zz2JaxsCf9zJ6e5iO+QfPjrVTTXLJ/MQGuNuXqGrNzS7YJ335EFzA5960U6vNUQ7evVRmz5yxAIN0XTNdhuDZ0gO0M0X/gH+GcNgY8LbPIfsYwOIK1nAvnSswG8ceR0k8MPc2Kb8FmZ39tVe7PHyjxx38WeLfpd2V3EUYzFCaycLTRYfjUVDPG/FrLv8ZD/wsfiQjZaD7M0/7fFlB77Zh9bOZrajxcBVbZV79ZuPUF7FT+zJY6v4TFuMb955tq5Me9D68Kcju/ThQevPPm0r36xz7WrKhbd1s7XxNRRzY+GlsfS7IJ/xVmva4JcPkYiM5QgaQ5M/QTmofSYM5iaAr8UEfCqmvKDon69Rp05y0zlfZU59xpc4yaYLfzxoPO4uchWqRSNZ2tHsnXyAJhvftG32ScZc0ADdIojfM56emywT7G+DXdEiUXFPaG/xVlBoOlzZvBafO1uj41UE8keOO545+fCKJ4h1fpCTj/mrbUVx0lcB0tP4bKK/+PEnmm58xoK+XnO9F/nXQYv9gOZvND38FSf2sHvWhIXZ4qfN3QGx+uSX+6mcRONrzPR18gFby7mcuUDsyCiOyTOW7nID7vHF47m++I4O5uZPdsVnbqO1Z7t8e0bjnXqShV59jMbDT3zmmbigtUfjJ4NNwFbt0FpEL6DZOeda9rmTSy9kX2Pnxqk+57o20XrGd2sdesbVOsaG5DsYiS15Yt1aS+/qLznuLnaWU+1rHPNFO7q4xIMGtcyft8JcaO4VQ7YA+cWHfs/8aX3JJ+0ucBcb8cPbOHzR9KCLQXqNA335CGiypq78L3Z4yJrxRrNfTaHx6yvWYiZv2YXHnBeT7NNGVvaLsXrIjmzShzdb+mD1GqqTYv7SWGtRH1h7g0a/a5Xx9N+zYQLFETSGGUSYBptMkjAXbX0cnptXChWOgHBeQZBlgjFu1Ykfn+cWo2mL4JW4kosfz0yiNnYpQrLSg08f2niJzA7QR3Z8yQDy+SEZ4jADbUwy8Xs28UGsWrAm8ObHihLXQSJ0GmwSywH/8rOYFZt8di9OaHliE7+Ll/EzNnxju5zJJ7350QZKHp1obewjw6IL+uubRZwd2WeMPph0C2yxxD9jOWMnVqfiTKb+4scWfomfGODRTj6g2emqdtDioWZqJ7d+tUKm53I+x5cT4+lfx7SIxNcYMIYuwFtMxJUefeKoLtSmsdmfHGPiE1f0rF+xaONtXpQ/vNnlGcoNX7Kdbnxq0BzXbkx6V1nZ5p7t+vFpb20xlp+143Gxl93aodjQiw/NTmtT6xUdycxuiJaPPmDUl9/VtfySD9W/fJDND/zmjBiU2/xHlxd9tWsjt7jx3YXHhb+c5n+xc5Hjrj2Zs738aqdjBd/YHND5C+pBTLQ3l9kF5HkG/rNhrWt3OSQD2KSfP/rQ8aHJ6QNkPpfT6hYPv/iYb/LhGQ+7ilGxw8MXdSG+xmfjtJf91lV6jddOnwtdm/45jm5trmKPbkx08WQHPnavwGetBnz42VQc6hMnNgR6qvfiqjaToe3/5w6mgq0jhzLeBRRnMMMSDPEZ0+alSKZC/e4lomfXXHAYxZ6ZsGnL1F1yC7Y2fXjyw0WOO158+tCzOPTnC/0CpogkRp/4aK94KnD2tmAkUztb2AEKkY8g8CGbyQKblEUdLAb5HujBQ14JTg+dM2b55ip+xQk9YxRt7Bqb5BpHb5PPmKlbn4JscWjTnnwdHMjTLyb8mDIsMNrzIX/wNMnZGIwvRnjZHFrAyK52xS95cssf/fmrr8Ubv3xbKKpJuouVcWj3GSv3+swb14ypdjazXV9jitXKx2b2V0MtpPiLnTbxNa4ck+tKN9l8Udvp1NdiEB9Z6k8/mXwXJ3LZVJ7IIFN7totpc8WzGBprXHPKlY/48KPxkMNP/qklbWj1gk5fY8WGvGxiu2e25TObjEfzVczRfMuH6Y97cj2D+LjI5Id2d1jzwc5i6V5uq3/zhE34xDl5ao1P2vDoZ2sHAbLY5tLnSoeruFQLZM52l1jzI78m2Eh/kAf5C2xonpNJBtsATa740oOXnfmu391zuiff7IvmHz1sYgd75MU48U6GPMlv+TbWOOM9qyNji522aDxkZKOxq72Tx91ztLvnOS7druJUP7vlB62N7WpBTPWpwwl9tasFsTAuX9UM8EX8gz7jrIHTfvLoTIb2J9bvxurIIUUkwQV7Tq4WRwIyJhmdZJtgxhiLl1xt0xB9LTgFFC8+F9kmCVvQBQ+dE+nWlhzBErR0uuNdE5Qu/ZA8Mvje4tO4fHeh8VSYLjYln9wOCGICfOWLdjrSBwqhhV58+CCOZGrnT3Y04fjMRnIrJm3xkZ+fnqOLdfFCs7cxxbb4paPC0kZPh6HiTZZ2NOj3jH/S+IzzHD318s+CRQ6aXyazOOoH/ckDMfIMdDVB+FR8+I8HTWf1NzeubMgu42d8jCF71u6MlXvj3ItJi5H27MCfXG3ii48ttYm9eshv7S7jxCVf6MFTjpNtLBnZiE87Wlv+4lPLZIu7OsXLR3EnV19jjOeD+ckONuONL//SQ9Yc7+4ZvxynL1vYLF7oxpKZf67VJrSLXn34k4vmH5muakS7/KO1s3eVi6f48FF7G6Qx2uicPpbvYp4NxcSFV7u8qydx1s+W/HB3NUYbXvZMO4sLHvlortQ+aX02Fn7zD1o7tPMzWwMf6VJvbCbH83qIdM9O9/x294yGyTf7ouVNbeHL7vzN/lk3+oxnZ+uV58bQ49IWrb0+7eIur9MOOVTb2qfNaDzGy4e1mj1sTm42GYMXbW6pPf3ak6cG3Cf08VVu4jVObZHFR9DmuUMEmn3NCfbTaXzrVvX5xPrdWPcCUwAIiycj8LgUoSJifAnThlfAkuUiJ5ld9fVcQAt0QZu2TLqCM2YNtnb6PXfXlp+NmXzQZEx3m4ME14536klOiwR+icbjWTu5Ns/4FCm9JpQ+wK+IQJtncZQ87el0p4NtbFwXG235qZ3t9M5JhU9/Y9DlS/86mVe9/FOc7DemTcNziwV4Zrs7Hr6baMlja7QxxdKF1o5mg1gYWyyblPQpfva0ODQO2Gx8i0U5nj4XL2PEyJhpV7ziyYba0WQZpy153bWRM3PiQmvDN20gB//k6zl/6musa+opd2Ju8cCrLxvRjdG2zqNkNw7fzFM1oN+45HmeMuS9eRBfY47mbr4YV67wyK9c45XfFlt5zKap10WOOYa//NPRYUjexIcecrSj5dLVJoLX/CJn6tBnPOjjp+fsoStez9rnPHbhNx+0sxGvceqPLfnhnhyXNne2pWPO83jQ+tSAfs/VdjnkK9tBTLI728iSK5g2sFkM8JRLF1o85QsfHrEkd8YGpq2zL9qFxlcO8jdd+NlNHz1065/yGsNmvmqjc8aWDPJrx9OaP+1caXqSQc9RG1n5MnXLSfNTv5y7YMacDexDVyvkslf8gV60GJSP9E+bq9v63J9M+nUDRveCqGid9CpWQnIivpSgJYES/QzXzlnOJ7PLeFfP+jlMRs/00+t5ykCvzs4Aa3fHy55OufnZGIFUQAUfj0Khc+pIb+Pxm1BofdMONJlNgCaLAwF9fMwnY+srTgo++13sl3jj+FESFSl52Zg8Mcu2ad9RP5nkoMllK14ymxTyOPXykSy0O7v5y0ZxaZG2UU++SfNfnPGRXZGTLQZ42MoeNnouHi1gtbF3jTOb1FGxafHDz0a0drbiLa/a6EW7Z7Mx7NVPRu3oxmXPbNdGzlHtacMXr7apv7Gu5gXwUZ98xDP1rPVAlvtsE285O7ILX3HJPrUgT8bHxw40OfngMpa96XOh5Vwc0fInB8masUA3B5OhHY0/P11o/c01/enUV9z4G79nNuPhIz+0o/mYDv10FpN0sFvsyVbj5MU/fSgOtbno0hYvue7iYi6kjw0ufdHGuMSmWpy8bNDGV/ahpwzPeOI3ls8u4J885ws79bVeGF8OyaQHfx9CkjnzMtvmnF+/NpCPmSPt1Sg+Na2veU4um8gy3pVv+UnGlDfbGoPfpd242vEU22mnXIstOj3JwD/bxE8NkNUY49Ox8mpTH/wSV7XluXmOD79x1Tp54C626je704+/mtGOR76qzyfznjsMpFDQPU9DJUCw8ZgAJUcxEGgcI9GML6EzcNpLYAsqPS58rpmknukno/bJsy522qbdFezsL0D5PNt6rZUMfbWldy1494JaG3/dtVX47JBcMouPfvLqo0dbhZ/OLvIVBH3GtEhmY342Fr+LL+71H8WhfpfxTbpsKCZzsWWLZ/wWdTaohd6G9Gkx/xUc/inP2J7d+USOMWjjxcrY2mZxs1O8xaSa4g8Z6GI+Y5QO49havPQZw5bkuLv0ufBm6+SdfnguD9pOxXzWQm3Z4rmxZLrww7QhHvfm31oPs1Ymv/u0qzZ82VK9odlZztWA+HlmSzkiJ/nG4NXPrvjQR7GgRz/b8bpqp8c4cj1rJx+Ptmyfi2bj2EmPuZXM1iIy2J2P6kXtlhd0dZgOfMWnNcg4cZ52F4famgdk0W0M27S7jKGv2LC3Ok9/F3nZoc/FZv7ro4cs7Z6TJx768kWsXW04+sSCfeQZh3YXf2PQYqOfzdOG6qINRpt+OviY3c3b6qfrKG74OmzRqY/cciE/ZLvroysZ6Nq18U9b+TVenwtNX3R+xZN92YVe9wO8xSidjZk6XOywRmqbccLHVzxykh2trTNGckKGezGvb+qvLb+yU9tT97EDGToVt7gIpAJOEX7JLKgZo68JO4vbRU/OJ+f/jXri155N7Kg9nhlAzxKtLbunL8k2ftqAnm1NaOP5IrCAp0KLR+IVANmuZDYJ4qs43cWIzBYgtFfX2skQa3xiR34LC7lscs8X9/zMxvqm70djj+JQv8t49uNLV2O7s1We5bVJKv7RLRL4WkymjuJCl+diLhbaPOdfvqRbTYmRPmCDeDWxjRNbfJ7ZBdqMkTd2Fn/3fKOneM0YZbfx9Mjf9E17fngmT1ty2CBeLajoVS8+voiLZ+36iwUZzUE8c5z+7INZD+76s1Gb+LEBX3VWn9h0OKqNHld6tK314cJTG19c8eYHesZWP13unqPJmDqSgcYj/mg1M+spntk2x6KtHdWuOsGrfa4BLvkin13Jq27wiaHay5/G6auea8smevEaQ6f2YlR7cUC7u4oP/nTQL5fpnneXPnb0bKyrmPGltUws+Bc/3UGsxan4VD9q0Rzw7MKT3WQkW9u0u/XF87zY0xwmi534wLhiSlaxrD6Sgb82Y/C5ip+22W9M7eja2+DJa21Z6eJRvKaMbFrlHo0XX3OOPnlgn375mPWAX4zEhrz8dzeeHLrSl5zmuLFk0BHfU/d3ZgwSS6FAU4TWxwAwmCKTCA+jCSfMhPGc0QXGGAEtqFMmWkAqoJLeWDwlHp1zaDLwedZef/TsR5O72jbbCqIk8YUMwJPcTqT6BJNsl/Hi0KKzHpiM5SP5FhB9LhBzMvXPuBQvY8hwz246xUQbsDE/jacvu9Du9R/FoX5XvuHDry0/kqFW2Df9YIt2EAcTT9887a62aEdrr8+VXvLYR3Zj2ME28kHcPLOHXrzyh894toNY4msBN3FAW/bSYSyZxWXGU54c4mpnD5qMfKBHTvOZnCmjWm+8tvjc2dGcakyxKi98w0MXv+PDk0+Nc69WaksfvsnDLm3JYCtf6BJLcyMZ+jvQamNDfrroyEe8taPz1aU/PjbyiX/udNJPh1qi3xh8jU+uKznaq1l5Lm/G4ZlzsDWPruZ3seCXvvzLftBGh6u1Q+7UEp3ap22eWx/wGkM/39iAFu9k4at2pl8z1tqyUdu8x1u/iw1s5BsdPRtDf3WVfSs6NJO11vW0q/yi1ax7/ckWx+ZdcZt8fBMP+QDjPOtrz6Ajm7WpD/ahs2XKy6bihs4m9YauPbvZGf9Kx1M85J0v+l3ZMOUaL+fsLJ5ib89gt2fgi7Z0xMNWstQoOfS5w9xHps7yUe3iM+6X+a4Bo0HTqdoMxChAoA8fY3IwXjT+irjAcBSSLVASFy35eMlzMdB4m8dMPP7pWPZ5nv3JaLGe/rl71s4GgS1A3ZNLHuARMHKBHH38mcVILj4+xYfmB5lswgNkxteEEOdoMmfy20jFA08FQC8Yk5/FwTM5bMy+4pCvrmj9LuO1uc94aSu+ZFgw3fEBe/Kp2PN5LhzGupu0LdCe1UCLgD6LItvJLw7Z4BktDoAXn5q0IaLlgV602AF5YgnZAHjyK1/diwvd9eGd7dXKlKG9+OmLToYrvjW+7vG0uKHxteGvNogHeXhn7TVOLPThz8b04csG7XMR0hef/njxqT+5FVs65d6ilZ/pEG9+GFv7nJsuMo3Tpi+d2lyTjhdP/pJJN9v1qQexKl54zRtxIh9P/mknf85H7cWObPEguw1LP7Rx461GG5dOdmWbttYcvI1x5eOU5RLf+JOLhy3atXnWXszLg5zoc2+Niq85I4/4xYr/5dN4dhzBuMkrD2Ty0XUkx50t2chfcrLfhZ58+asNorXrTzdZ+pKx7hlH8tDa0fHpQ9ee3dPOlY7H2GlHV7Kt7a2P8zAK5MgltOlPtH7iAzrIUQN0pBPkkSw66BYHuuSDvvRkM19+EUvALw/DqdrcBdoFBiaoMQqJEjT+jK4YQrJdaPxocshldEHLFu31aTcJXXMcnfUnw/i1OLTlk3a0MdlVX3K1gTv/BR3mQpBe47qMBXHSZ7OUlPRDEzMYY8EC48jpU4lLcWh3dQAzZupCW2Tcpz3Z5E7/jI1rLV55I4ftbUQKyaZLL55iQ5axYAGoTtqAJx8ZFh/yp1487Mo28vUpaL43vjFHqF1s8FrYYPKrU7qBnewF+umsdnqe9pnE8kV27WqcP2jtbRL48bhnM7rYpUsbnz3H5x5PdalW1E8LmzhO2/CRkz4ojtqNEUty0MmQT3UjLq58JAf4h1aX+slUD8aTra+6xItP25RVvPAYI0Z45Ic9Lrzygg+/cWxrwyYXzQf+kCV/9Ggnszga37xhkzrESw8Yy3cgW7xai6pd47TLLTv18ZkOcvQHNdS6gK+YZwu6Z/bzRbsL+M0m7XTSU95d2Uan2JORDu1iJw6Nda8Pnz7+ovXRx97WazKzif/rhnME/eLLtikz/a7VB3c2xFOui00+Tb548IPYixWb6aum2C8uyc0GMqY88rVra10jQ47LOT782V0dmX/8RGcz2/Jt6la/6kLs3fXnW3xoF5DD/pfADheQwQ71yV7j3aG9qbUar4ud2tNJHxni8NT87JBi0phTHKFEnwEtmNoFA34RMAxgZHwpJC80OWsvwCXHWAnRb7yCzAk6tJdQdONmm+IoEBWHZLNVwvXjN67E5DMZLglnGx7QFz/wAx+40yV+yXUH49gCTbTioRDoOQJ7G8fmFi3jKwR66Zo2uipENnT1nH/kxNdmMMegi0188iQf8iOm1YB2NQFiUP5BX8VNVjnRPvV6VmsdlNhokeK7cVAcjH8NxhzxsZ1/wE72Av58nosLG/ipv1pjH7vZgq520HiMSz+/0LO+9NNtgdDGZ4sb2WvuoBjQ2WKPf9oA1bd+0F7d00sGmdXAtKv2cp4MdD6KFZqN4sgG/aAm6Z7yikVjkpuOYtGlrzniuUOk+iEXjUedxBNNZrHzDDM2eJtPxRrI1tfBsdpln4vM1jh1ga4ejiAO5gJ7yDLOmGJhHF/wNY+zWTvb6GkjdhWHeMggi0wy1IRYtvGQpw8/vnKNxmOMfkCTaT3DT1bt2XcE8vADfXJfnXl2ZSs55GcDHn4214tNtTr5xB+PPtDuWXs+ymu65MacxY8mQ47pSx4+16yX9HjGRw+eYh9/Y9mZ3+n2nMzkTFnsjc/cFZfWRnKqvVMwXk3DjIO5iHYHbfrF3Bg1xP9qPJ3akvF0ex7EYEauTikMBusHQS8pTdoMoCA+ytsoJvDPwvDMWPrYUbC0g3ZyLULap61z3GzzbPzqCxqffm3pik8i+FLy8QD9EoB/hUmL14LUwl5C6SEbJKHN8jWwQaFB9oMCV0DAFsVTLvDlczHp6jnf8YqHdvQ6Bs0v+YuvfJi89CoimP7KKT8DWXPxzT73qdcz36onuuOrhuSg8a9B/o4w7XP3DDO/bSxySRc7XdVKdrtnTzSe4pv90XS0GLn47XopD2BMOVYX5k4xRdMB5KCNh2jt9JmP8pT+Nhh61aX5tdaU2JODTx9antDZDO78w0cu24uFMfKKxxjtaDbkp0tfMdMH+dB8xJef8lO9kImuRoBP2dcGDsaRCfz0DHON008OmVMH3eJDzxHocxVz49DFYsY825oX6lEO6ANtbIp2VWt8U6docmcs2c5X/OU7Ppf2dLAlqH8ywRrTOnMEOrKNLWRWF9q1mVuzPtnAVzXMDrz6ig2ZYjV9KvatL+6e2TY/MBQXF9p4uumiU9zLX3zo8ox2N64xeEB7/HNsdLqz393FLlfP9MdXnaNBex9IXkL5Yqfx5JTrcjpRjOd6kc5kyNvT7XkiaFQIq1McwUwgmFDaQKJnH2XRJorxK2Zh0IeWUDQbClY87PCsHe2if7YZR7dFS9sM0vQFbaz+5LjHJ/lsAZNdH7h7biGZoI8uwSxWxecSsFA1OSfSyxdgv2c5YW/+5at7z3gVjRyh+U+Pa42NuIkr/4Pn9KLP8bcJ3CKYrXMRZAeav9UWG6Bix3Np0FF++UsPn6oLNasu0MUrHyZd7bXYa4ufjuJabF30ucdnvJg2cfV3cGnhMwcBH11grL7yot2cMh6/vnS7PAO99LO9GCdDe3wz/m1AbYb4WqjxqCP8fGgMW/DTg1/eW3dc2so5+2DOQe3kzfyIC5o9dOAvHnxu7AS78m+uV/yJribJLK5ib/NBk3GE5gkbbSZ4rQv4xcQz0CUewJbaJ7ThA3fPbEHzi47o6q44zhh1cNTH31ObDf/E/xzwJduyX72zA60N0C5YbY235+wWQ5f2Yl89VLd05aM8qwNx5yfoQyc7PcXMhaZTX7KyS52WH+3skXsyG5ucNSdqx3i2urTndzrWtc34UzV1hOLA7w5KR7kzL/SpAeAH/ZCMX2ypIWNBpwGd7jy3Oa7Ax/lzwWHygD50QW0TJrPJPJOYjezFX5vFxFi0NidRCTuaNMaSicfCpa8iymeQSDIBD3ktxhPFRx8deJNxTdDLpg4IitYz8M1zvrLJvWdxKDbRk8+9muBTG0rQVj3gYctrsPiUd7GNpq9cQ/UQzZfApnMXqreAjvS20NNVjOqb8RJrdk8eceAPGtyjxam4Ftvi6z7zgMazItuKPbvxgvrTZzxod5FfjabblV146MeDNz4g37yA+ujJDuMAXweT2vGnh1/5SA/apb96y276qif8NhwQb/zZEY8caMv/7GBjPOdATRbXcmizacGmA11sjmAdircFmO+eyW9+ovkM1iB+rjA2Hv3Gsoe/2sl0L6Zslgdrlj7j2aoP3RuPS4AdxZne/BI/uuaBsD5rqytb2TZtt77I2fRJ7MhAw1xD6mvzRM81yhjyOoh6Fhf2iP/MSRspO/DRX+y1o9Onz1h3l/b4tZOhhsWHj9rrS0dyq21+He0tp0BucVWTpw526Ww/Uh/lhn2tu08svzYWcpaDFfOpjQ3PW0BuyjsdS9YMpLtnEDQ8kpONFRDnOTbtjy/7p1w0XjK79AEdklcyFE8JoyO+FQo/f34kJH/GPp+B3dNXk48/Pc/YRBeL7h2smiAV7ApFdfQqaoXJSg6QVczoMxmDHKgHYJv+a4MOtqmRNhOxKkb1sU0s2xj0QbTaS1bt0WLqItfJ3ILledZ7eUDjOwJ5xcdEZk/QV7zIcJHPLn3udM/44yFDfvDia4GfGxTb8gXEgt3QZgl48osPno3Nx+annJu/7PU87e5gu7azPTviYWPxwJ8dbwW5oc08zJp8CXSbM2QVS7ExP8S7WLKz+SRGM4eBzjWXMOPrrr26K17pJpt+G8apevooyG3znXph2j1t1c/OaTt6rZPmWYczbeIC/NJXXtBHaxRd+ozNPut5dZReNDvwaWMHaEdPfnLcG+uunuWZDHzkrPM8HWBM9FtBrvGvIZ3NCTa5olt3n1ieJ/0supzlYIIE/RIoyVDAwL1guVdYM6jaXRJLRsXkXl986Zhy5xgTXXuf9k2UCgzIsXGChabgrZD4ZHwm8h/4l6/8bBHId30Vb7R2491NJhe64i8W74VDZLmemwsdrjBfi1kcL/kJ5hT6tMBXqN48W7zFrziIYTz5oB9d7eane7R2NW0Ck01uG8aaB2NO1duMD31z4SNDbKOziaxkutiiD7IXXzlKN1/boMz/Dg5gATmqe+P5aXG2rngGC684kT1p/lZ3QGYfONC1k4m/PLD3WmD79HXG/FyQke8dLFvTpl8OQvxfIT/VmliXL3Lw818ci8WMYxtkeVTfHewuDTZWB31gyO5qENiGZpN+dnpme31yO/mAvOrBwS95IEdtcOijNYocMuYhl/7qKL2149fGDlCn+bfyyydaW+380kfOlJXuOT+rgbeC3Ox7CeJ2dMAENckmeDLr+2ucjEJzXoDn4n0JKFwBgBZfcGcwfRzMyYIqiZJhQkgWGRWTe2MUyjppkruOmYkwaSVxogLrfgqv9f8I8L0NgU/56hIDdwsBnhkbdMVLhvukK3ib10cgRk1StnQKpePU6yw24L02ilFvgcTERIMZI3QLEroJpt/VgqYP3NtM+Om5xQFdfBtfHuI7B7P22FO8pk29zUOTK/ZtSNlr48jHFge8+sPUJZdsXeEg7SIrPyG/2DJ9RLO72pg69NXODnZl4zlvnz6Cj85pdlpDg3gXS351uC0GK+ROHxjXfOF7sSiO0dqTJQeN/6gvL0G9tbGVmw4cfJ51lk/GsNNzG5VxKx9o7wMoP/WH6ZcxR2vUrP0OKdqy1bgOTeyyz4hdevQXUzzaGxuNx4UuJ+x3obV1KGx+Glvc3ooO2OfgnNw/mfXdwCYcusXLwjg/bXwUdBRgAaELTBg6BVJ/PL2aq9AF27ju2twVmwMGvpICxpYgMvG7FAyd6EeAA1JF5c7vJhza3bMJ1+Y1YzNjK+biqU0fvl7JXQLsKL8m4KlClc+PHj7OgUNI9QIWXDYC39lqHvSJAGoH8TS+g2ZvlNRXcsXSGHJbmIovHhfa/HhvvNknf0Ae/ea2OUGmO93mWba7N9fLdQcd/K0JK9iXrgl6ySCLr2jI/+Yx2oKrVuk/kqUOaycP+lTd8y1j2sjn6gedX2q/TW5CHMUK5Kg1WE7VZ7kppuQZQzbMGr4m5KPDM7AnveyedcY+feY0+8wbMapmVj5Y83wq78YczRmxKUbGoh0Goo0DtBjGn936i2ntjUXz3XzHp33WdvWvrTHl3djoz8aTWc+YBnKok+elMV9/KQZ6gU60YFn8XcAm7ZIjmPi0ddfWMxof2gXr4QKPayboEVAcoJjxMdrds7gUf+0uML6YusTNIlzx2kwuBTLl6TU0ca8NG2P1BhZrkxj4PvvCupGKXbGq9tyjxVefHLTQaDMmPnT5Oic+K2YNOMSRU6yjO/BP29tgLrHB0tthVFw7EE2/5sG+9qO3QQ4jHUgm8M+N5x5grSsu/H4txmLX4Xge8NWJ2rORFbvqRp8aAPX7GTGabyDUVnVW/fNdPx86FGl3gTb0Ud5fwozXRPVezNHighfdPme9E8N1fsyYorUnJx5083f1E61tvm0AbdGfjSeznmHyZhSHjha+S0BgCl5BAjrREiRABZ5NBVUbPm2SZ2IUTO1ofAqxT7vJlSB6k91XIBakRwCf+tRczMQ3Wp9n8Sj+JqI+ML7YdjhDV/CPjrlgTprvR5+G1VdxLHbFCg3u1SEefRZnNYrWZgy+xpevty6CYCEkG/o+nsz0ocH8aH7zYc4BfKfezJyDGTt6i0V+aTui2X4uTr2duHXM2LwF6kScQDzLpYNTtH59eD8T9pE+kTtcdsCcOZ+bI/RJGrR1cLwExCa96Clbe3OYfnbFP9tn7LV3gJiHGH3lIX3tMfmJbo2eOf1sPJn1DA4JAnDoWpujAPapUpDoAoulIIEANdFnULWXFMnwXDC1o/Hhn0n0LEHaXPjju5VEfBRi2uJdzOYhAO0SjzU2MGOLb8bmPRvSo+BUjZgvYgYOo2IH+KNnrPHoU3fVXp/u0C4oX+r1I1AL5pSNJ33BwpztzZlwyVyTWyw6lGibPkZf+zv+e4a1sByJZ7FrnhZHfeX1s+Bw2frOluzJVn60OTav2F2d4O/gcCkUI5j1rX2uhWwE7W3w5tC0M348+YbWN+uZn66VLx1433sovDSezHoGgwvUDMg1QWfJF1xBAkEr8C0eCsui6bWN0xR+xWKC4PWpVn+Bn8n1zDdtLvy99knPI6FClMNJu2YhFxsQc8/4i+GpH+x9JfjkcDQXxKvJLWa9VhS3anrGujw0z9DaAO2C+I6+J34v0hfo+BGfpm3svQkRQzbwf76luIa/j4z5NU8xBXFsDbwVzDnSmuIe3Y/bzBF+Afv7tHwpmMPitYINzU/35rk9Jru1N0/R8RsbD9pcn/Vsf8nPxsvP0Vry2Xgy8bfgEAeuDUFrwRTcXtUIboGr0GeAtZUQbb0WQxf4ktUbBuPnGM+NeTQUM7GYMXPNjWl9+6IPf7+ixf/VISa93pzwpqxFoEMpmOgdCIw9eh261p5FpzzEd0nMeQbeEvTW6Nro086syWgbP3/5v3EefNIWOzltrYPqpo31FmCO9Ea578TZnN19BcSn5s81Ph078B7JVXd94qe/9c5cmYeADiXo+RXAS4eAmZ/mOZ5bXFOfTPwtGP+jkC6F0ELllU1J8x2qw4FnyRBUgZybVosKugW2onL3DHT02wfykvVoKB5iW1H2ffGp2Mx4FsNHjM1bISZHr8jFRqyiiyn+SbdQlIf5y+TG9+kOyt2l8SPn9BGqPf5PH8VAnDbOw3yLUkyhD0JHB9bPAlvnGmLTZbP5xNZq0qf/5syPxJyf6rKDsUN87ezKh/kVoD2pty58IUtOmuczP81zH7ry+ZbwZOJtoE3oJbR4uMcvwLWjW2ArKnfPMMdAsh4NxUPBTbqinAV+FJtO7Y8Ym7fCwfO1T83i2icEG3q1J57FWlzFVH12AK0OvS0oD2L+2jy4R1R7/HcgzV8xKF4br2PG0SvnaqV5fstfq5gb8xDsDmrg0r8DOAdzfk6ox7lGtg5qq721EvjimT9znudnfGTx/9bwZOJtQHD7XugUmgCSgr9ENAHQBd6nfhB4zzDHwKnve+8d/fBGvIoNuvhVyGLTq1ivzMSj2DRm4zy0+IqpK7pPC/MTHKD7zYXYewb5UqOPBotf/qsrX5uAeqseN15HB0hxRPfbDnXT16m3iuZIa3SHawftz6gB8/NIr7ba1efRDx1PHQJ6Ww35Gd+tHtC+mfv5EKgWz1PoNZKCn5tWG50EFPiS1XdooG0mD93fgz8S2uzdXzoEFA8QE33FRmzxb7wN6yGgePbpV30CWm6gAwJo6zcFj4Tmpbu6qu48F5ON83A0L++pbmyG8wOfw8zRV27Xhj2ktXDCwf219rmPqGuHWn613kI13zy/VXwz9/MhoK8dAmZQ56ZV4N3jmRud5+iZvFv9juaj6LAkFsWGn641NqcOAdofMTbXhkPnfAtVPIt9Gx66xaE3N6DttXlwj2heunsr8Npbv423wafVt/xbCxvPc/LoNxTmbGvkxGxXv81tdT3nb3Q1f+sfNL+Z+/nwarTvVV+CoAq0BKCNK/DuBX5udJ6j5yHASbBF+ZEwF9xiM/9kZcbm1CFA3yPG5toQt+I7DwHiXx2CuMsNzD4b5LX+jY7PhFe/fKymbvXV6MaGTfvoryzM5Tm3m7/quvmrra9YW4dv/cPUN9M/H4JXgF9C3+O3aaFd0X1nliz3vivzOsdrmxbmR4UFVgzmIQDdG4JiY7NZDwG39Ovie8R8ZTgXiuoyzEMAPOLXUiuqw42Ne4SDQXvHnNvzT621taaC9n5TcKsYy9Ln4tzXWS2e888FXejGo/tBlqStG92jHwKAn+shwIXux0RrbJxgf9Tfjz8qxPHoEACz7sT9q72+VXv7DcDGI2DObeup2gZt6yHg1mv+m+n3Az9+Eeg2t0n32gXdgrtudLPvkcHPU4eAU7Hpu+yN90McTx0CJh719ygvQf1tbDwC5tz2Fs+6Gj0PAfhuHd9Mvx/4e1KBbnNzn38SB7XDutHp+wqfwHq9XJycRtdDgNdbxcZXBXuR/jjEsF86q0dfAxzB4vDVDgEbG4+CObfd+5NX7Q7494SnLeG+0OvqeQgQeHSLKrrvtv1wcD0E3Pp3NJdEsYH1ECB2+1fanwN1uV+Nb2w8BtqXrLf38Ol/4tv2cH9oczt1COjTmP55CLj1f1Dj0njtEHBvBbuxsbFxq/ABs9+j3Qu+bQ/3hzY3r/aj+4Rvo+9T1noIOOfPEB8JR4cAMYF9CNjY2Nj42rj7Q4B7dN9pz+9h50aH76v9InseAmAeAvTtQ8DGxsbG18XdHgL6m/ejQ8CEH8h95Y1ObPrRCohTPxoUw37JvrGxsbHx9XC3h4Bebb92CND31Q8BfR0CxWxjY2NjY+OhDgFHv7bG1w/hviL2IWBjY2Nj4xQe6hCw8VscHQKO3phsbGxsbHw93O3W2f+QxCbX/6t847dY/49t+xCwsbGxsRHueuvsENBbgY1jzK9J/BBw//8BNjY2Njbg7g8BDgD7ELCxsbGxsfF23PXW6f961yFg/hncxsbGxsbGxuu460OAH7x1CJg/ftvY2NjY2Nh4HXd9CPC/FfZ9twu9sbGxsbGxcS5+/vn/AKrA05+Zh1JSAAAAAElFTkSuQmCC;rotation=90;fontFamily=宋体;fontSize=15;" parent="1" vertex="1">
          <mxGeometry x="-140" y="438.71999999999997" width="480" height="81.7" as="geometry" />
        </mxCell>
        <mxCell id="gRTbHUQzDtAFuBZ8Pfh3-10" value="" style="group;fillColor=#f8cecc;strokeColor=#b85450;fontFamily=宋体;fontSize=15;" parent="1" vertex="1" connectable="0">
          <mxGeometry x="670" y="850" width="20" height="180" as="geometry" />
        </mxCell>
        <mxCell id="gRTbHUQzDtAFuBZ8Pfh3-7" value="" style="shape=process;whiteSpace=wrap;html=1;backgroundOutline=1;size=0.3333333333333333;direction=south;fillColor=#f8cecc;strokeColor=#b85450;fontFamily=宋体;fontSize=15;" parent="gRTbHUQzDtAFuBZ8Pfh3-10" vertex="1">
          <mxGeometry width="20" height="60" as="geometry" />
        </mxCell>
        <mxCell id="gRTbHUQzDtAFuBZ8Pfh3-8" value="" style="shape=process;whiteSpace=wrap;html=1;backgroundOutline=1;size=0.3333333333333333;direction=south;fillColor=#f8cecc;strokeColor=#b85450;fontFamily=宋体;fontSize=15;" parent="gRTbHUQzDtAFuBZ8Pfh3-10" vertex="1">
          <mxGeometry y="60" width="20" height="60" as="geometry" />
        </mxCell>
        <mxCell id="gRTbHUQzDtAFuBZ8Pfh3-9" value="" style="shape=process;whiteSpace=wrap;html=1;backgroundOutline=1;size=0.3333333333333333;direction=south;fillColor=#f8cecc;strokeColor=#b85450;fontFamily=宋体;fontSize=15;" parent="gRTbHUQzDtAFuBZ8Pfh3-10" vertex="1">
          <mxGeometry y="120" width="20" height="60" as="geometry" />
        </mxCell>
        <mxCell id="gRTbHUQzDtAFuBZ8Pfh3-34" value="" style="group;fillColor=#e1d5e7;strokeColor=#9673a6;fontFamily=宋体;fontSize=15;" parent="1" vertex="1" connectable="0">
          <mxGeometry x="240" y="379.15" width="20" height="180" as="geometry" />
        </mxCell>
        <mxCell id="gRTbHUQzDtAFuBZ8Pfh3-35" value="" style="shape=process;whiteSpace=wrap;html=1;backgroundOutline=1;size=0.3333333333333333;direction=south;fillColor=#e1d5e7;strokeColor=#9673a6;fontFamily=宋体;fontSize=15;" parent="gRTbHUQzDtAFuBZ8Pfh3-34" vertex="1">
          <mxGeometry width="20" height="60" as="geometry" />
        </mxCell>
        <mxCell id="gRTbHUQzDtAFuBZ8Pfh3-36" value="" style="shape=process;whiteSpace=wrap;html=1;backgroundOutline=1;size=0.3333333333333333;direction=south;fillColor=#e1d5e7;strokeColor=#9673a6;fontFamily=宋体;fontSize=15;" parent="gRTbHUQzDtAFuBZ8Pfh3-34" vertex="1">
          <mxGeometry y="60" width="20" height="60" as="geometry" />
        </mxCell>
        <mxCell id="gRTbHUQzDtAFuBZ8Pfh3-37" value="" style="shape=process;whiteSpace=wrap;html=1;backgroundOutline=1;size=0.3333333333333333;direction=south;fillColor=#e1d5e7;strokeColor=#9673a6;fontFamily=宋体;fontSize=15;" parent="gRTbHUQzDtAFuBZ8Pfh3-34" vertex="1">
          <mxGeometry y="120" width="20" height="60" as="geometry" />
        </mxCell>
        <mxCell id="gRTbHUQzDtAFuBZ8Pfh3-101" value="" style="endArrow=classic;html=1;rounded=0;fontFamily=宋体;fontSize=15;fillColor=#e1d5e7;strokeColor=#000000;" parent="gRTbHUQzDtAFuBZ8Pfh3-34" edge="1">
          <mxGeometry width="50" height="50" relative="1" as="geometry">
            <mxPoint x="9.579999999999984" y="120" as="sourcePoint" />
            <mxPoint x="9.579999999999984" y="60" as="targetPoint" />
          </mxGeometry>
        </mxCell>
        <mxCell id="gRTbHUQzDtAFuBZ8Pfh3-292" value="" style="whiteSpace=wrap;html=1;aspect=fixed;fontFamily=Helvetica;fontSize=11;fillColor=#ffff88;strokeColor=#36393d;" parent="gRTbHUQzDtAFuBZ8Pfh3-34" vertex="1">
          <mxGeometry y="120" width="20" height="20" as="geometry" />
        </mxCell>
        <mxCell id="gRTbHUQzDtAFuBZ8Pfh3-42" value="" style="group;fillColor=#fff2cc;strokeColor=#d6b656;fontFamily=宋体;fontSize=15;" parent="1" vertex="1" connectable="0">
          <mxGeometry x="650" y="870" width="20" height="180" as="geometry" />
        </mxCell>
        <mxCell id="gRTbHUQzDtAFuBZ8Pfh3-43" value="" style="shape=process;whiteSpace=wrap;html=1;backgroundOutline=1;size=0.3333333333333333;direction=south;fillColor=#fff2cc;strokeColor=#d6b656;fontFamily=宋体;fontSize=15;" parent="gRTbHUQzDtAFuBZ8Pfh3-42" vertex="1">
          <mxGeometry width="20" height="60" as="geometry" />
        </mxCell>
        <mxCell id="gRTbHUQzDtAFuBZ8Pfh3-44" value="" style="shape=process;whiteSpace=wrap;html=1;backgroundOutline=1;size=0.3333333333333333;direction=south;fillColor=#fff2cc;strokeColor=#d6b656;fontFamily=宋体;fontSize=15;" parent="gRTbHUQzDtAFuBZ8Pfh3-42" vertex="1">
          <mxGeometry y="60" width="20" height="60" as="geometry" />
        </mxCell>
        <mxCell id="gRTbHUQzDtAFuBZ8Pfh3-45" value="" style="shape=process;whiteSpace=wrap;html=1;backgroundOutline=1;size=0.3333333333333333;direction=south;fillColor=#fff2cc;strokeColor=#d6b656;fontFamily=宋体;fontSize=15;" parent="gRTbHUQzDtAFuBZ8Pfh3-42" vertex="1">
          <mxGeometry y="120" width="20" height="60" as="geometry" />
        </mxCell>
        <mxCell id="gRTbHUQzDtAFuBZ8Pfh3-46" value="" style="group;fillColor=#d5e8d4;strokeColor=#82b366;fontFamily=宋体;fontSize=15;" parent="1" vertex="1" connectable="0">
          <mxGeometry x="640" y="880" width="20" height="180" as="geometry" />
        </mxCell>
        <mxCell id="gRTbHUQzDtAFuBZ8Pfh3-47" value="" style="shape=process;whiteSpace=wrap;html=1;backgroundOutline=1;size=0.3333333333333333;direction=south;fillColor=#d5e8d4;strokeColor=#82b366;fontFamily=宋体;fontSize=15;" parent="gRTbHUQzDtAFuBZ8Pfh3-46" vertex="1">
          <mxGeometry width="20" height="60" as="geometry" />
        </mxCell>
        <mxCell id="gRTbHUQzDtAFuBZ8Pfh3-48" value="" style="shape=process;whiteSpace=wrap;html=1;backgroundOutline=1;size=0.3333333333333333;direction=south;fillColor=#d5e8d4;strokeColor=#82b366;fontFamily=宋体;fontSize=15;" parent="gRTbHUQzDtAFuBZ8Pfh3-46" vertex="1">
          <mxGeometry y="60" width="20" height="60" as="geometry" />
        </mxCell>
        <mxCell id="gRTbHUQzDtAFuBZ8Pfh3-49" value="" style="shape=process;whiteSpace=wrap;html=1;backgroundOutline=1;size=0.3333333333333333;direction=south;fillColor=#d5e8d4;strokeColor=#82b366;fontFamily=宋体;fontSize=15;" parent="gRTbHUQzDtAFuBZ8Pfh3-46" vertex="1">
          <mxGeometry y="120" width="20" height="60" as="geometry" />
        </mxCell>
        <mxCell id="gRTbHUQzDtAFuBZ8Pfh3-50" value="" style="group;fillColor=#dae8fc;strokeColor=#6c8ebf;fontFamily=宋体;fontSize=15;" parent="1" vertex="1" connectable="0">
          <mxGeometry x="630" y="890" width="20" height="180" as="geometry" />
        </mxCell>
        <mxCell id="gRTbHUQzDtAFuBZ8Pfh3-51" value="" style="shape=process;whiteSpace=wrap;html=1;backgroundOutline=1;size=0.3333333333333333;direction=south;fillColor=#dae8fc;strokeColor=#6c8ebf;fontFamily=宋体;fontSize=15;" parent="gRTbHUQzDtAFuBZ8Pfh3-50" vertex="1">
          <mxGeometry width="20" height="60" as="geometry" />
        </mxCell>
        <mxCell id="gRTbHUQzDtAFuBZ8Pfh3-52" value="" style="shape=process;whiteSpace=wrap;html=1;backgroundOutline=1;size=0.3333333333333333;direction=south;fillColor=#dae8fc;strokeColor=#6c8ebf;fontFamily=宋体;fontSize=15;" parent="gRTbHUQzDtAFuBZ8Pfh3-50" vertex="1">
          <mxGeometry y="60" width="20" height="60" as="geometry" />
        </mxCell>
        <mxCell id="gRTbHUQzDtAFuBZ8Pfh3-53" value="" style="shape=process;whiteSpace=wrap;html=1;backgroundOutline=1;size=0.3333333333333333;direction=south;fillColor=#dae8fc;strokeColor=#6c8ebf;fontFamily=宋体;fontSize=15;" parent="gRTbHUQzDtAFuBZ8Pfh3-50" vertex="1">
          <mxGeometry y="120" width="20" height="60" as="geometry" />
        </mxCell>
        <mxCell id="gRTbHUQzDtAFuBZ8Pfh3-58" value="" style="rounded=0;whiteSpace=wrap;html=1;direction=south;fillColor=#dae8fc;strokeColor=#6c8ebf;fontFamily=宋体;fontSize=15;" parent="1" vertex="1">
          <mxGeometry x="160" y="910" width="20" height="180" as="geometry" />
        </mxCell>
        <mxCell id="gRTbHUQzDtAFuBZ8Pfh3-54" value="" style="group;fillColor=#e1d5e7;strokeColor=#9673a6;fontFamily=宋体;fontSize=15;" parent="1" vertex="1" connectable="0">
          <mxGeometry x="200.00000000000003" y="419.15" width="20" height="180" as="geometry" />
        </mxCell>
        <mxCell id="gRTbHUQzDtAFuBZ8Pfh3-55" value="" style="shape=process;whiteSpace=wrap;html=1;backgroundOutline=1;size=0.3333333333333333;direction=south;fillColor=#e1d5e7;strokeColor=#9673a6;fontFamily=宋体;fontSize=15;" parent="gRTbHUQzDtAFuBZ8Pfh3-54" vertex="1">
          <mxGeometry width="20" height="60" as="geometry" />
        </mxCell>
        <mxCell id="gRTbHUQzDtAFuBZ8Pfh3-56" value="" style="shape=process;whiteSpace=wrap;html=1;backgroundOutline=1;size=0.3333333333333333;direction=south;fillColor=#e1d5e7;strokeColor=#9673a6;fontFamily=宋体;fontSize=15;" parent="gRTbHUQzDtAFuBZ8Pfh3-54" vertex="1">
          <mxGeometry y="60" width="20" height="60" as="geometry" />
        </mxCell>
        <mxCell id="gRTbHUQzDtAFuBZ8Pfh3-57" value="" style="shape=process;whiteSpace=wrap;html=1;backgroundOutline=1;size=0.3333333333333333;direction=south;fillColor=#e1d5e7;strokeColor=#9673a6;fontFamily=宋体;fontSize=15;" parent="gRTbHUQzDtAFuBZ8Pfh3-54" vertex="1">
          <mxGeometry y="120" width="20" height="60" as="geometry" />
        </mxCell>
        <mxCell id="gRTbHUQzDtAFuBZ8Pfh3-100" value="" style="endArrow=classic;html=1;rounded=0;fontFamily=宋体;fontSize=15;" parent="gRTbHUQzDtAFuBZ8Pfh3-54" edge="1">
          <mxGeometry width="50" height="50" relative="1" as="geometry">
            <mxPoint x="9.579999999999956" y="120" as="sourcePoint" />
            <mxPoint x="9.579999999999956" y="60" as="targetPoint" />
          </mxGeometry>
        </mxCell>
        <mxCell id="gRTbHUQzDtAFuBZ8Pfh3-239" value="" style="whiteSpace=wrap;html=1;aspect=fixed;fontFamily=Helvetica;fontSize=11;fillColor=#ffff88;strokeColor=#36393d;" parent="gRTbHUQzDtAFuBZ8Pfh3-54" vertex="1">
          <mxGeometry x="-2.842170943040401e-14" y="120" width="20" height="20" as="geometry" />
        </mxCell>
        <mxCell id="gRTbHUQzDtAFuBZ8Pfh3-65" value="&lt;font style=&quot;font-size: 15px;&quot;&gt;特征通道&lt;/font&gt;" style="text;html=1;strokeColor=none;fillColor=none;align=center;verticalAlign=middle;whiteSpace=wrap;rounded=0;fontFamily=宋体;fontSize=15;" parent="1" vertex="1">
          <mxGeometry x="207.5" y="319.15" width="65" height="30" as="geometry" />
        </mxCell>
        <mxCell id="gRTbHUQzDtAFuBZ8Pfh3-73" value="&lt;font style=&quot;font-size: 15px;&quot;&gt;`\times 20`&lt;/font&gt;" style="text;html=1;strokeColor=none;fillColor=none;align=center;verticalAlign=middle;whiteSpace=wrap;rounded=0;fontFamily=宋体;fontSize=15;" parent="1" vertex="1">
          <mxGeometry x="220.77" y="604.15" width="30" height="20" as="geometry" />
        </mxCell>
        <mxCell id="gRTbHUQzDtAFuBZ8Pfh3-261" style="edgeStyle=none;shape=connector;rounded=0;orthogonalLoop=1;jettySize=auto;html=1;exitX=1;exitY=0;exitDx=0;exitDy=0;entryX=0;entryY=1;entryDx=0;entryDy=0;labelBackgroundColor=default;strokeColor=#0000CC;align=center;verticalAlign=middle;fontFamily=Helvetica;fontSize=11;fontColor=default;endArrow=none;endFill=0;dashed=1;" parent="1" source="gRTbHUQzDtAFuBZ8Pfh3-74" target="gRTbHUQzDtAFuBZ8Pfh3-233" edge="1">
          <mxGeometry relative="1" as="geometry" />
        </mxCell>
        <mxCell id="gRTbHUQzDtAFuBZ8Pfh3-89" value="&lt;font style=&quot;font-size: 15px;&quot;&gt;多层卷积池化&lt;/font&gt;" style="html=1;verticalAlign=bottom;endArrow=classicThin;curved=0;rounded=0;endFill=1;dashed=1;fontFamily=宋体;fontSize=15;" parent="1" edge="1">
          <mxGeometry x="-0.0007" y="-24" width="80" relative="1" as="geometry">
            <mxPoint x="440" y="559.3" as="sourcePoint" />
            <mxPoint x="540" y="559.15" as="targetPoint" />
            <mxPoint as="offset" />
          </mxGeometry>
        </mxCell>
        <mxCell id="gRTbHUQzDtAFuBZ8Pfh3-140" style="edgeStyle=none;shape=connector;rounded=0;orthogonalLoop=1;jettySize=auto;html=1;exitX=1;exitY=0.5;exitDx=0;exitDy=0;entryX=0;entryY=0.5;entryDx=0;entryDy=0;labelBackgroundColor=default;strokeColor=#808080;align=center;verticalAlign=middle;fontFamily=宋体;fontSize=15;fontColor=default;endArrow=classicThin;endFill=1;" parent="1" source="gRTbHUQzDtAFuBZ8Pfh3-91" target="gRTbHUQzDtAFuBZ8Pfh3-104" edge="1">
          <mxGeometry relative="1" as="geometry" />
        </mxCell>
        <mxCell id="gRTbHUQzDtAFuBZ8Pfh3-141" style="edgeStyle=none;shape=connector;rounded=0;orthogonalLoop=1;jettySize=auto;html=1;exitX=1;exitY=0.5;exitDx=0;exitDy=0;entryX=0;entryY=0.5;entryDx=0;entryDy=0;labelBackgroundColor=default;strokeColor=#808080;align=center;verticalAlign=middle;fontFamily=宋体;fontSize=15;fontColor=default;endArrow=classicThin;endFill=1;" parent="1" source="gRTbHUQzDtAFuBZ8Pfh3-91" target="gRTbHUQzDtAFuBZ8Pfh3-105" edge="1">
          <mxGeometry relative="1" as="geometry" />
        </mxCell>
        <mxCell id="gRTbHUQzDtAFuBZ8Pfh3-142" style="edgeStyle=none;shape=connector;rounded=0;orthogonalLoop=1;jettySize=auto;html=1;exitX=1;exitY=0.5;exitDx=0;exitDy=0;entryX=0;entryY=0.5;entryDx=0;entryDy=0;labelBackgroundColor=default;strokeColor=#808080;align=center;verticalAlign=middle;fontFamily=宋体;fontSize=15;fontColor=default;endArrow=classicThin;endFill=1;" parent="1" source="gRTbHUQzDtAFuBZ8Pfh3-91" target="gRTbHUQzDtAFuBZ8Pfh3-106" edge="1">
          <mxGeometry relative="1" as="geometry" />
        </mxCell>
        <mxCell id="gRTbHUQzDtAFuBZ8Pfh3-143" style="edgeStyle=none;shape=connector;rounded=0;orthogonalLoop=1;jettySize=auto;html=1;exitX=1;exitY=0.5;exitDx=0;exitDy=0;entryX=0;entryY=0.5;entryDx=0;entryDy=0;labelBackgroundColor=default;strokeColor=#808080;align=center;verticalAlign=middle;fontFamily=宋体;fontSize=15;fontColor=default;endArrow=classicThin;endFill=1;" parent="1" source="gRTbHUQzDtAFuBZ8Pfh3-91" target="gRTbHUQzDtAFuBZ8Pfh3-107" edge="1">
          <mxGeometry relative="1" as="geometry" />
        </mxCell>
        <mxCell id="gRTbHUQzDtAFuBZ8Pfh3-91" value="" style="ellipse;whiteSpace=wrap;html=1;aspect=fixed;fillColor=#d5e8d4;gradientColor=#97d077;strokeColor=#82b366;fontFamily=宋体;fontSize=15;direction=east;" parent="1" vertex="1">
          <mxGeometry x="360" y="870" width="20" height="20" as="geometry" />
        </mxCell>
        <mxCell id="gRTbHUQzDtAFuBZ8Pfh3-144" style="edgeStyle=none;shape=connector;rounded=0;orthogonalLoop=1;jettySize=auto;html=1;exitX=1;exitY=0.5;exitDx=0;exitDy=0;entryX=0;entryY=0.5;entryDx=0;entryDy=0;labelBackgroundColor=default;strokeColor=#808080;align=center;verticalAlign=middle;fontFamily=宋体;fontSize=15;fontColor=default;endArrow=classicThin;endFill=1;" parent="1" source="gRTbHUQzDtAFuBZ8Pfh3-92" target="gRTbHUQzDtAFuBZ8Pfh3-104" edge="1">
          <mxGeometry relative="1" as="geometry" />
        </mxCell>
        <mxCell id="gRTbHUQzDtAFuBZ8Pfh3-145" style="edgeStyle=none;shape=connector;rounded=0;orthogonalLoop=1;jettySize=auto;html=1;exitX=1;exitY=0.5;exitDx=0;exitDy=0;entryX=0;entryY=0.5;entryDx=0;entryDy=0;labelBackgroundColor=default;strokeColor=#808080;align=center;verticalAlign=middle;fontFamily=宋体;fontSize=15;fontColor=default;endArrow=classicThin;endFill=1;" parent="1" source="gRTbHUQzDtAFuBZ8Pfh3-92" target="gRTbHUQzDtAFuBZ8Pfh3-105" edge="1">
          <mxGeometry relative="1" as="geometry" />
        </mxCell>
        <mxCell id="gRTbHUQzDtAFuBZ8Pfh3-146" style="edgeStyle=none;shape=connector;rounded=0;orthogonalLoop=1;jettySize=auto;html=1;exitX=1;exitY=0.5;exitDx=0;exitDy=0;entryX=0;entryY=0.5;entryDx=0;entryDy=0;labelBackgroundColor=default;strokeColor=#808080;align=center;verticalAlign=middle;fontFamily=宋体;fontSize=15;fontColor=default;endArrow=classicThin;endFill=1;" parent="1" source="gRTbHUQzDtAFuBZ8Pfh3-92" target="gRTbHUQzDtAFuBZ8Pfh3-106" edge="1">
          <mxGeometry relative="1" as="geometry" />
        </mxCell>
        <mxCell id="gRTbHUQzDtAFuBZ8Pfh3-147" style="edgeStyle=none;shape=connector;rounded=0;orthogonalLoop=1;jettySize=auto;html=1;exitX=1;exitY=0.5;exitDx=0;exitDy=0;entryX=0;entryY=0.5;entryDx=0;entryDy=0;labelBackgroundColor=default;strokeColor=#808080;align=center;verticalAlign=middle;fontFamily=宋体;fontSize=15;fontColor=default;endArrow=classicThin;endFill=1;" parent="1" source="gRTbHUQzDtAFuBZ8Pfh3-92" target="gRTbHUQzDtAFuBZ8Pfh3-107" edge="1">
          <mxGeometry relative="1" as="geometry" />
        </mxCell>
        <mxCell id="gRTbHUQzDtAFuBZ8Pfh3-92" value="" style="ellipse;whiteSpace=wrap;html=1;aspect=fixed;fillColor=#d5e8d4;gradientColor=#97d077;strokeColor=#82b366;fontFamily=宋体;fontSize=15;direction=east;" parent="1" vertex="1">
          <mxGeometry x="360" y="911" width="20" height="20" as="geometry" />
        </mxCell>
        <mxCell id="gRTbHUQzDtAFuBZ8Pfh3-148" style="edgeStyle=none;shape=connector;rounded=0;orthogonalLoop=1;jettySize=auto;html=1;exitX=1;exitY=0.5;exitDx=0;exitDy=0;entryX=0;entryY=0.5;entryDx=0;entryDy=0;labelBackgroundColor=default;strokeColor=#808080;align=center;verticalAlign=middle;fontFamily=宋体;fontSize=15;fontColor=default;endArrow=classicThin;endFill=1;" parent="1" source="gRTbHUQzDtAFuBZ8Pfh3-93" target="gRTbHUQzDtAFuBZ8Pfh3-104" edge="1">
          <mxGeometry relative="1" as="geometry" />
        </mxCell>
        <mxCell id="gRTbHUQzDtAFuBZ8Pfh3-149" style="edgeStyle=none;shape=connector;rounded=0;orthogonalLoop=1;jettySize=auto;html=1;exitX=1;exitY=0.5;exitDx=0;exitDy=0;entryX=0;entryY=0.5;entryDx=0;entryDy=0;labelBackgroundColor=default;strokeColor=#808080;align=center;verticalAlign=middle;fontFamily=宋体;fontSize=15;fontColor=default;endArrow=classicThin;endFill=1;" parent="1" source="gRTbHUQzDtAFuBZ8Pfh3-93" target="gRTbHUQzDtAFuBZ8Pfh3-105" edge="1">
          <mxGeometry relative="1" as="geometry" />
        </mxCell>
        <mxCell id="gRTbHUQzDtAFuBZ8Pfh3-150" style="edgeStyle=none;shape=connector;rounded=0;orthogonalLoop=1;jettySize=auto;html=1;exitX=1;exitY=0.5;exitDx=0;exitDy=0;entryX=0;entryY=0.5;entryDx=0;entryDy=0;labelBackgroundColor=default;strokeColor=#808080;align=center;verticalAlign=middle;fontFamily=宋体;fontSize=15;fontColor=default;endArrow=classicThin;endFill=1;" parent="1" source="gRTbHUQzDtAFuBZ8Pfh3-93" target="gRTbHUQzDtAFuBZ8Pfh3-106" edge="1">
          <mxGeometry relative="1" as="geometry" />
        </mxCell>
        <mxCell id="gRTbHUQzDtAFuBZ8Pfh3-151" style="edgeStyle=none;shape=connector;rounded=0;orthogonalLoop=1;jettySize=auto;html=1;exitX=1;exitY=0.5;exitDx=0;exitDy=0;entryX=0;entryY=0.5;entryDx=0;entryDy=0;labelBackgroundColor=default;strokeColor=#808080;align=center;verticalAlign=middle;fontFamily=宋体;fontSize=15;fontColor=default;endArrow=classicThin;endFill=1;" parent="1" source="gRTbHUQzDtAFuBZ8Pfh3-93" target="gRTbHUQzDtAFuBZ8Pfh3-107" edge="1">
          <mxGeometry relative="1" as="geometry" />
        </mxCell>
        <mxCell id="gRTbHUQzDtAFuBZ8Pfh3-93" value="" style="ellipse;whiteSpace=wrap;html=1;aspect=fixed;fillColor=#d5e8d4;gradientColor=#97d077;strokeColor=#82b366;fontFamily=宋体;fontSize=15;direction=east;" parent="1" vertex="1">
          <mxGeometry x="360" y="947.87" width="20" height="20" as="geometry" />
        </mxCell>
        <mxCell id="gRTbHUQzDtAFuBZ8Pfh3-152" style="edgeStyle=none;shape=connector;rounded=0;orthogonalLoop=1;jettySize=auto;html=1;exitX=1;exitY=0.5;exitDx=0;exitDy=0;entryX=0;entryY=0.5;entryDx=0;entryDy=0;labelBackgroundColor=default;strokeColor=#808080;align=center;verticalAlign=middle;fontFamily=宋体;fontSize=15;fontColor=default;endArrow=classicThin;endFill=1;" parent="1" source="gRTbHUQzDtAFuBZ8Pfh3-94" target="gRTbHUQzDtAFuBZ8Pfh3-104" edge="1">
          <mxGeometry relative="1" as="geometry" />
        </mxCell>
        <mxCell id="gRTbHUQzDtAFuBZ8Pfh3-153" style="edgeStyle=none;shape=connector;rounded=0;orthogonalLoop=1;jettySize=auto;html=1;exitX=1;exitY=0.5;exitDx=0;exitDy=0;entryX=0;entryY=0.5;entryDx=0;entryDy=0;labelBackgroundColor=default;strokeColor=#808080;align=center;verticalAlign=middle;fontFamily=宋体;fontSize=15;fontColor=default;endArrow=classicThin;endFill=1;" parent="1" source="gRTbHUQzDtAFuBZ8Pfh3-94" target="gRTbHUQzDtAFuBZ8Pfh3-105" edge="1">
          <mxGeometry relative="1" as="geometry" />
        </mxCell>
        <mxCell id="gRTbHUQzDtAFuBZ8Pfh3-155" style="edgeStyle=none;shape=connector;rounded=0;orthogonalLoop=1;jettySize=auto;html=1;exitX=1;exitY=0.5;exitDx=0;exitDy=0;entryX=0;entryY=0.5;entryDx=0;entryDy=0;labelBackgroundColor=default;strokeColor=#808080;align=center;verticalAlign=middle;fontFamily=宋体;fontSize=15;fontColor=default;endArrow=classicThin;endFill=1;" parent="1" source="gRTbHUQzDtAFuBZ8Pfh3-94" target="gRTbHUQzDtAFuBZ8Pfh3-106" edge="1">
          <mxGeometry relative="1" as="geometry" />
        </mxCell>
        <mxCell id="gRTbHUQzDtAFuBZ8Pfh3-156" style="edgeStyle=none;shape=connector;rounded=0;orthogonalLoop=1;jettySize=auto;html=1;exitX=1;exitY=0.5;exitDx=0;exitDy=0;entryX=0;entryY=0.5;entryDx=0;entryDy=0;labelBackgroundColor=default;strokeColor=#808080;align=center;verticalAlign=middle;fontFamily=宋体;fontSize=15;fontColor=default;endArrow=classicThin;endFill=1;" parent="1" source="gRTbHUQzDtAFuBZ8Pfh3-94" target="gRTbHUQzDtAFuBZ8Pfh3-107" edge="1">
          <mxGeometry relative="1" as="geometry" />
        </mxCell>
        <mxCell id="gRTbHUQzDtAFuBZ8Pfh3-94" value="" style="ellipse;whiteSpace=wrap;html=1;aspect=fixed;fillColor=#d5e8d4;gradientColor=#97d077;strokeColor=#82b366;fontFamily=宋体;fontSize=15;direction=east;" parent="1" vertex="1">
          <mxGeometry x="360" y="990" width="20" height="20" as="geometry" />
        </mxCell>
        <mxCell id="gRTbHUQzDtAFuBZ8Pfh3-157" style="edgeStyle=none;shape=connector;rounded=0;orthogonalLoop=1;jettySize=auto;html=1;exitX=1;exitY=0.5;exitDx=0;exitDy=0;entryX=0;entryY=0.5;entryDx=0;entryDy=0;labelBackgroundColor=default;strokeColor=#808080;align=center;verticalAlign=middle;fontFamily=宋体;fontSize=15;fontColor=default;endArrow=classicThin;endFill=1;" parent="1" source="gRTbHUQzDtAFuBZ8Pfh3-95" target="gRTbHUQzDtAFuBZ8Pfh3-104" edge="1">
          <mxGeometry relative="1" as="geometry" />
        </mxCell>
        <mxCell id="gRTbHUQzDtAFuBZ8Pfh3-158" style="edgeStyle=none;shape=connector;rounded=0;orthogonalLoop=1;jettySize=auto;html=1;exitX=1;exitY=0.5;exitDx=0;exitDy=0;entryX=0;entryY=0.5;entryDx=0;entryDy=0;labelBackgroundColor=default;strokeColor=#808080;align=center;verticalAlign=middle;fontFamily=宋体;fontSize=15;fontColor=default;endArrow=classicThin;endFill=1;" parent="1" source="gRTbHUQzDtAFuBZ8Pfh3-95" target="gRTbHUQzDtAFuBZ8Pfh3-105" edge="1">
          <mxGeometry relative="1" as="geometry" />
        </mxCell>
        <mxCell id="gRTbHUQzDtAFuBZ8Pfh3-159" style="edgeStyle=none;shape=connector;rounded=0;orthogonalLoop=1;jettySize=auto;html=1;exitX=1;exitY=0.5;exitDx=0;exitDy=0;entryX=0;entryY=0.5;entryDx=0;entryDy=0;labelBackgroundColor=default;strokeColor=#808080;align=center;verticalAlign=middle;fontFamily=宋体;fontSize=15;fontColor=default;endArrow=classicThin;endFill=1;" parent="1" source="gRTbHUQzDtAFuBZ8Pfh3-95" target="gRTbHUQzDtAFuBZ8Pfh3-106" edge="1">
          <mxGeometry relative="1" as="geometry" />
        </mxCell>
        <mxCell id="gRTbHUQzDtAFuBZ8Pfh3-160" style="edgeStyle=none;shape=connector;rounded=0;orthogonalLoop=1;jettySize=auto;html=1;exitX=1;exitY=0.5;exitDx=0;exitDy=0;entryX=0;entryY=0.5;entryDx=0;entryDy=0;labelBackgroundColor=default;strokeColor=#808080;align=center;verticalAlign=middle;fontFamily=宋体;fontSize=15;fontColor=default;endArrow=classicThin;endFill=1;" parent="1" source="gRTbHUQzDtAFuBZ8Pfh3-95" target="gRTbHUQzDtAFuBZ8Pfh3-107" edge="1">
          <mxGeometry relative="1" as="geometry" />
        </mxCell>
        <mxCell id="gRTbHUQzDtAFuBZ8Pfh3-95" value="" style="ellipse;whiteSpace=wrap;html=1;aspect=fixed;fillColor=#d5e8d4;gradientColor=#97d077;strokeColor=#82b366;fontFamily=宋体;fontSize=15;direction=east;" parent="1" vertex="1">
          <mxGeometry x="360" y="1030" width="20" height="20" as="geometry" />
        </mxCell>
        <mxCell id="gRTbHUQzDtAFuBZ8Pfh3-104" value="" style="ellipse;whiteSpace=wrap;html=1;aspect=fixed;fillColor=#d5e8d4;gradientColor=#97d077;strokeColor=#82b366;fontFamily=宋体;fontSize=15;direction=east;" parent="1" vertex="1">
          <mxGeometry x="470" y="890" width="20" height="20" as="geometry" />
        </mxCell>
        <mxCell id="gRTbHUQzDtAFuBZ8Pfh3-105" value="" style="ellipse;whiteSpace=wrap;html=1;aspect=fixed;fillColor=#d5e8d4;gradientColor=#97d077;strokeColor=#82b366;fontFamily=宋体;fontSize=15;direction=east;" parent="1" vertex="1">
          <mxGeometry x="470" y="931" width="20" height="20" as="geometry" />
        </mxCell>
        <mxCell id="gRTbHUQzDtAFuBZ8Pfh3-106" value="" style="ellipse;whiteSpace=wrap;html=1;aspect=fixed;fillColor=#d5e8d4;gradientColor=#97d077;strokeColor=#82b366;fontFamily=宋体;fontSize=15;direction=east;" parent="1" vertex="1">
          <mxGeometry x="470" y="967.87" width="20" height="20" as="geometry" />
        </mxCell>
        <mxCell id="gRTbHUQzDtAFuBZ8Pfh3-107" value="" style="ellipse;whiteSpace=wrap;html=1;aspect=fixed;fillColor=#d5e8d4;gradientColor=#97d077;strokeColor=#82b366;fontFamily=宋体;fontSize=15;direction=east;" parent="1" vertex="1">
          <mxGeometry x="470" y="1010" width="20" height="20" as="geometry" />
        </mxCell>
        <mxCell id="gRTbHUQzDtAFuBZ8Pfh3-161" value="卷积层" style="text;html=1;strokeColor=none;fillColor=none;align=center;verticalAlign=middle;whiteSpace=wrap;rounded=0;fontSize=15;fontFamily=宋体;fontColor=default;" parent="1" vertex="1">
          <mxGeometry x="205" y="670" width="60" height="20.85" as="geometry" />
        </mxCell>
        <mxCell id="gRTbHUQzDtAFuBZ8Pfh3-162" value="池化层" style="text;html=1;strokeColor=none;fillColor=none;align=center;verticalAlign=middle;whiteSpace=wrap;rounded=0;fontSize=15;fontFamily=宋体;fontColor=default;" parent="1" vertex="1">
          <mxGeometry x="335" y="624.1500000000001" width="60" height="15.42" as="geometry" />
        </mxCell>
        <mxCell id="gRTbHUQzDtAFuBZ8Pfh3-163" value="全连接层" style="text;html=1;strokeColor=none;fillColor=none;align=center;verticalAlign=middle;whiteSpace=wrap;rounded=0;fontSize=15;fontFamily=宋体;fontColor=default;" parent="1" vertex="1">
          <mxGeometry x="652.5" y="580" width="75" height="19.15" as="geometry" />
        </mxCell>
        <mxCell id="gRTbHUQzDtAFuBZ8Pfh3-164" value="输出层" style="text;html=1;strokeColor=none;fillColor=none;align=center;verticalAlign=middle;whiteSpace=wrap;rounded=0;fontSize=15;fontFamily=宋体;fontColor=default;" parent="1" vertex="1">
          <mxGeometry x="907.5" y="580" width="75" height="20.85" as="geometry" />
        </mxCell>
        <mxCell id="gRTbHUQzDtAFuBZ8Pfh3-165" style="edgeStyle=none;shape=connector;rounded=0;orthogonalLoop=1;jettySize=auto;html=1;exitX=1;exitY=0;exitDx=0;exitDy=0;entryX=1;entryY=0;entryDx=0;entryDy=0;labelBackgroundColor=default;strokeColor=#808080;align=center;verticalAlign=middle;fontFamily=宋体;fontSize=15;fontColor=default;endArrow=none;endFill=0;dashed=1;" parent="1" source="gRTbHUQzDtAFuBZ8Pfh3-37" target="gRTbHUQzDtAFuBZ8Pfh3-60" edge="1">
          <mxGeometry relative="1" as="geometry" />
        </mxCell>
        <mxCell id="gRTbHUQzDtAFuBZ8Pfh3-166" style="edgeStyle=none;shape=connector;rounded=0;orthogonalLoop=1;jettySize=auto;html=1;exitX=0;exitY=0;exitDx=0;exitDy=0;entryX=0;entryY=0;entryDx=0;entryDy=0;labelBackgroundColor=default;strokeColor=#808080;align=center;verticalAlign=middle;fontFamily=宋体;fontSize=15;fontColor=default;endArrow=none;endFill=0;dashed=1;" parent="1" source="gRTbHUQzDtAFuBZ8Pfh3-35" target="gRTbHUQzDtAFuBZ8Pfh3-60" edge="1">
          <mxGeometry relative="1" as="geometry" />
        </mxCell>
        <mxCell id="gRTbHUQzDtAFuBZ8Pfh3-168" style="edgeStyle=none;shape=connector;rounded=0;orthogonalLoop=1;jettySize=auto;html=1;exitX=0;exitY=1;exitDx=0;exitDy=0;entryX=0;entryY=1;entryDx=0;entryDy=0;labelBackgroundColor=default;strokeColor=#808080;align=center;verticalAlign=middle;fontFamily=宋体;fontSize=15;fontColor=default;endArrow=none;endFill=0;dashed=1;" parent="1" source="gRTbHUQzDtAFuBZ8Pfh3-35" target="gRTbHUQzDtAFuBZ8Pfh3-60" edge="1">
          <mxGeometry relative="1" as="geometry" />
        </mxCell>
        <mxCell id="gRTbHUQzDtAFuBZ8Pfh3-203" style="edgeStyle=none;shape=connector;rounded=0;orthogonalLoop=1;jettySize=auto;html=1;exitX=1;exitY=0.5;exitDx=0;exitDy=0;entryX=0;entryY=0.5;entryDx=0;entryDy=0;labelBackgroundColor=default;strokeColor=#808080;align=center;verticalAlign=middle;fontFamily=宋体;fontSize=15;fontColor=default;endArrow=classicThin;endFill=1;" parent="1" target="gRTbHUQzDtAFuBZ8Pfh3-200" edge="1">
          <mxGeometry relative="1" as="geometry">
            <mxPoint x="704" y="425" as="sourcePoint" />
          </mxGeometry>
        </mxCell>
        <mxCell id="gRTbHUQzDtAFuBZ8Pfh3-208" style="edgeStyle=none;shape=connector;rounded=0;orthogonalLoop=1;jettySize=auto;html=1;exitX=1;exitY=0.5;exitDx=0;exitDy=0;entryX=0;entryY=0.5;entryDx=0;entryDy=0;labelBackgroundColor=default;strokeColor=#808080;align=center;verticalAlign=middle;fontFamily=宋体;fontSize=15;fontColor=default;endArrow=classicThin;endFill=1;" parent="1" target="gRTbHUQzDtAFuBZ8Pfh3-199" edge="1">
          <mxGeometry relative="1" as="geometry">
            <mxPoint x="704" y="425" as="sourcePoint" />
          </mxGeometry>
        </mxCell>
        <mxCell id="gRTbHUQzDtAFuBZ8Pfh3-213" style="edgeStyle=none;shape=connector;rounded=0;orthogonalLoop=1;jettySize=auto;html=1;exitX=1;exitY=0.5;exitDx=0;exitDy=0;entryX=0;entryY=0.5;entryDx=0;entryDy=0;labelBackgroundColor=default;strokeColor=#808080;align=center;verticalAlign=middle;fontFamily=宋体;fontSize=15;fontColor=default;endArrow=classicThin;endFill=1;" parent="1" target="gRTbHUQzDtAFuBZ8Pfh3-198" edge="1">
          <mxGeometry relative="1" as="geometry">
            <mxPoint x="704" y="425" as="sourcePoint" />
          </mxGeometry>
        </mxCell>
        <mxCell id="gRTbHUQzDtAFuBZ8Pfh3-218" style="edgeStyle=none;shape=connector;rounded=0;orthogonalLoop=1;jettySize=auto;html=1;exitX=1;exitY=0.5;exitDx=0;exitDy=0;entryX=0;entryY=0.5;entryDx=0;entryDy=0;labelBackgroundColor=default;strokeColor=#808080;align=center;verticalAlign=middle;fontFamily=宋体;fontSize=15;fontColor=default;endArrow=classicThin;endFill=1;" parent="1" target="gRTbHUQzDtAFuBZ8Pfh3-197" edge="1">
          <mxGeometry relative="1" as="geometry">
            <mxPoint x="704" y="425" as="sourcePoint" />
          </mxGeometry>
        </mxCell>
        <mxCell id="gRTbHUQzDtAFuBZ8Pfh3-188" value="" style="ellipse;whiteSpace=wrap;html=1;fontFamily=宋体;fontSize=15;fillColor=#d5e8d4;gradientColor=#97d077;strokeColor=#82b366;" parent="1" vertex="1">
          <mxGeometry x="680" y="420" width="20" height="10" as="geometry" />
        </mxCell>
        <mxCell id="gRTbHUQzDtAFuBZ8Pfh3-204" style="edgeStyle=none;shape=connector;rounded=0;orthogonalLoop=1;jettySize=auto;html=1;exitX=1;exitY=0.5;exitDx=0;exitDy=0;entryX=0;entryY=0.5;entryDx=0;entryDy=0;labelBackgroundColor=default;strokeColor=#808080;align=center;verticalAlign=middle;fontFamily=宋体;fontSize=15;fontColor=default;endArrow=classicThin;endFill=1;" parent="1" source="gRTbHUQzDtAFuBZ8Pfh3-192" target="gRTbHUQzDtAFuBZ8Pfh3-200" edge="1">
          <mxGeometry relative="1" as="geometry" />
        </mxCell>
        <mxCell id="gRTbHUQzDtAFuBZ8Pfh3-209" style="edgeStyle=none;shape=connector;rounded=0;orthogonalLoop=1;jettySize=auto;html=1;exitX=1;exitY=0.5;exitDx=0;exitDy=0;entryX=0;entryY=0.5;entryDx=0;entryDy=0;labelBackgroundColor=default;strokeColor=#808080;align=center;verticalAlign=middle;fontFamily=宋体;fontSize=15;fontColor=default;endArrow=classicThin;endFill=1;" parent="1" source="gRTbHUQzDtAFuBZ8Pfh3-192" target="gRTbHUQzDtAFuBZ8Pfh3-199" edge="1">
          <mxGeometry relative="1" as="geometry" />
        </mxCell>
        <mxCell id="gRTbHUQzDtAFuBZ8Pfh3-214" style="edgeStyle=none;shape=connector;rounded=0;orthogonalLoop=1;jettySize=auto;html=1;exitX=1;exitY=0.5;exitDx=0;exitDy=0;entryX=0;entryY=0.5;entryDx=0;entryDy=0;labelBackgroundColor=default;strokeColor=#808080;align=center;verticalAlign=middle;fontFamily=宋体;fontSize=15;fontColor=default;endArrow=classicThin;endFill=1;" parent="1" source="gRTbHUQzDtAFuBZ8Pfh3-192" target="gRTbHUQzDtAFuBZ8Pfh3-198" edge="1">
          <mxGeometry relative="1" as="geometry" />
        </mxCell>
        <mxCell id="gRTbHUQzDtAFuBZ8Pfh3-219" style="edgeStyle=none;shape=connector;rounded=0;orthogonalLoop=1;jettySize=auto;html=1;exitX=1;exitY=0.5;exitDx=0;exitDy=0;entryX=0;entryY=0.5;entryDx=0;entryDy=0;labelBackgroundColor=default;strokeColor=#808080;align=center;verticalAlign=middle;fontFamily=宋体;fontSize=15;fontColor=default;endArrow=classicThin;endFill=1;" parent="1" source="gRTbHUQzDtAFuBZ8Pfh3-192" target="gRTbHUQzDtAFuBZ8Pfh3-197" edge="1">
          <mxGeometry relative="1" as="geometry" />
        </mxCell>
        <mxCell id="gRTbHUQzDtAFuBZ8Pfh3-192" value="" style="ellipse;whiteSpace=wrap;html=1;fontFamily=宋体;fontSize=15;fillColor=#d5e8d4;gradientColor=#97d077;strokeColor=#82b366;" parent="1" vertex="1">
          <mxGeometry x="600" y="500" width="20" height="10" as="geometry" />
        </mxCell>
        <mxCell id="gRTbHUQzDtAFuBZ8Pfh3-206" style="edgeStyle=none;shape=connector;rounded=0;orthogonalLoop=1;jettySize=auto;html=1;exitX=1;exitY=0.5;exitDx=0;exitDy=0;entryX=0;entryY=0.5;entryDx=0;entryDy=0;labelBackgroundColor=default;strokeColor=#808080;align=center;verticalAlign=middle;fontFamily=宋体;fontSize=15;fontColor=default;endArrow=classicThin;endFill=1;" parent="1" source="gRTbHUQzDtAFuBZ8Pfh3-193" target="gRTbHUQzDtAFuBZ8Pfh3-200" edge="1">
          <mxGeometry relative="1" as="geometry" />
        </mxCell>
        <mxCell id="gRTbHUQzDtAFuBZ8Pfh3-211" style="edgeStyle=none;shape=connector;rounded=0;orthogonalLoop=1;jettySize=auto;html=1;exitX=1;exitY=0.5;exitDx=0;exitDy=0;entryX=0;entryY=0.5;entryDx=0;entryDy=0;labelBackgroundColor=default;strokeColor=#808080;align=center;verticalAlign=middle;fontFamily=宋体;fontSize=15;fontColor=default;endArrow=classicThin;endFill=1;" parent="1" source="gRTbHUQzDtAFuBZ8Pfh3-193" target="gRTbHUQzDtAFuBZ8Pfh3-199" edge="1">
          <mxGeometry relative="1" as="geometry" />
        </mxCell>
        <mxCell id="gRTbHUQzDtAFuBZ8Pfh3-216" style="edgeStyle=none;shape=connector;rounded=0;orthogonalLoop=1;jettySize=auto;html=1;exitX=1;exitY=0.5;exitDx=0;exitDy=0;entryX=0;entryY=0.5;entryDx=0;entryDy=0;labelBackgroundColor=default;strokeColor=#808080;align=center;verticalAlign=middle;fontFamily=宋体;fontSize=15;fontColor=default;endArrow=classicThin;endFill=1;" parent="1" source="gRTbHUQzDtAFuBZ8Pfh3-193" target="gRTbHUQzDtAFuBZ8Pfh3-198" edge="1">
          <mxGeometry relative="1" as="geometry" />
        </mxCell>
        <mxCell id="gRTbHUQzDtAFuBZ8Pfh3-221" style="edgeStyle=none;shape=connector;rounded=0;orthogonalLoop=1;jettySize=auto;html=1;exitX=1;exitY=0.5;exitDx=0;exitDy=0;entryX=0;entryY=0.5;entryDx=0;entryDy=0;labelBackgroundColor=default;strokeColor=#808080;align=center;verticalAlign=middle;fontFamily=宋体;fontSize=15;fontColor=default;endArrow=classicThin;endFill=1;" parent="1" source="gRTbHUQzDtAFuBZ8Pfh3-193" target="gRTbHUQzDtAFuBZ8Pfh3-197" edge="1">
          <mxGeometry relative="1" as="geometry" />
        </mxCell>
        <mxCell id="gRTbHUQzDtAFuBZ8Pfh3-193" value="" style="ellipse;whiteSpace=wrap;html=1;fontFamily=宋体;fontSize=15;fillColor=#d5e8d4;gradientColor=#97d077;strokeColor=#82b366;" parent="1" vertex="1">
          <mxGeometry x="660" y="440" width="20" height="10" as="geometry" />
        </mxCell>
        <mxCell id="gRTbHUQzDtAFuBZ8Pfh3-205" style="edgeStyle=none;shape=connector;rounded=0;orthogonalLoop=1;jettySize=auto;html=1;exitX=1;exitY=0.5;exitDx=0;exitDy=0;entryX=0;entryY=0.5;entryDx=0;entryDy=0;labelBackgroundColor=default;strokeColor=#808080;align=center;verticalAlign=middle;fontFamily=宋体;fontSize=15;fontColor=default;endArrow=classicThin;endFill=1;" parent="1" source="gRTbHUQzDtAFuBZ8Pfh3-194" target="gRTbHUQzDtAFuBZ8Pfh3-200" edge="1">
          <mxGeometry relative="1" as="geometry" />
        </mxCell>
        <mxCell id="gRTbHUQzDtAFuBZ8Pfh3-210" style="edgeStyle=none;shape=connector;rounded=0;orthogonalLoop=1;jettySize=auto;html=1;exitX=1;exitY=0.5;exitDx=0;exitDy=0;entryX=0;entryY=0.5;entryDx=0;entryDy=0;labelBackgroundColor=default;strokeColor=#808080;align=center;verticalAlign=middle;fontFamily=宋体;fontSize=15;fontColor=default;endArrow=classicThin;endFill=1;" parent="1" source="gRTbHUQzDtAFuBZ8Pfh3-194" target="gRTbHUQzDtAFuBZ8Pfh3-199" edge="1">
          <mxGeometry relative="1" as="geometry" />
        </mxCell>
        <mxCell id="gRTbHUQzDtAFuBZ8Pfh3-215" style="edgeStyle=none;shape=connector;rounded=0;orthogonalLoop=1;jettySize=auto;html=1;exitX=1;exitY=0.5;exitDx=0;exitDy=0;entryX=0;entryY=0.5;entryDx=0;entryDy=0;labelBackgroundColor=default;strokeColor=#808080;align=center;verticalAlign=middle;fontFamily=宋体;fontSize=15;fontColor=default;endArrow=classicThin;endFill=1;" parent="1" source="gRTbHUQzDtAFuBZ8Pfh3-194" target="gRTbHUQzDtAFuBZ8Pfh3-198" edge="1">
          <mxGeometry relative="1" as="geometry" />
        </mxCell>
        <mxCell id="gRTbHUQzDtAFuBZ8Pfh3-220" style="edgeStyle=none;shape=connector;rounded=0;orthogonalLoop=1;jettySize=auto;html=1;exitX=1;exitY=0.5;exitDx=0;exitDy=0;entryX=0;entryY=0.5;entryDx=0;entryDy=0;labelBackgroundColor=default;strokeColor=#808080;align=center;verticalAlign=middle;fontFamily=宋体;fontSize=15;fontColor=default;endArrow=classicThin;endFill=1;" parent="1" source="gRTbHUQzDtAFuBZ8Pfh3-194" target="gRTbHUQzDtAFuBZ8Pfh3-197" edge="1">
          <mxGeometry relative="1" as="geometry" />
        </mxCell>
        <mxCell id="gRTbHUQzDtAFuBZ8Pfh3-194" value="" style="ellipse;whiteSpace=wrap;html=1;fontFamily=宋体;fontSize=15;fillColor=#d5e8d4;gradientColor=#97d077;strokeColor=#82b366;" parent="1" vertex="1">
          <mxGeometry x="620" y="480" width="20" height="10" as="geometry" />
        </mxCell>
        <mxCell id="gRTbHUQzDtAFuBZ8Pfh3-207" style="edgeStyle=none;shape=connector;rounded=0;orthogonalLoop=1;jettySize=auto;html=1;exitX=1;exitY=0.5;exitDx=0;exitDy=0;entryX=0;entryY=0.5;entryDx=0;entryDy=0;labelBackgroundColor=default;strokeColor=#808080;align=center;verticalAlign=middle;fontFamily=宋体;fontSize=15;fontColor=default;endArrow=classicThin;endFill=1;" parent="1" source="gRTbHUQzDtAFuBZ8Pfh3-195" target="gRTbHUQzDtAFuBZ8Pfh3-200" edge="1">
          <mxGeometry relative="1" as="geometry" />
        </mxCell>
        <mxCell id="gRTbHUQzDtAFuBZ8Pfh3-212" style="edgeStyle=none;shape=connector;rounded=0;orthogonalLoop=1;jettySize=auto;html=1;exitX=1;exitY=0.5;exitDx=0;exitDy=0;entryX=0;entryY=0.5;entryDx=0;entryDy=0;labelBackgroundColor=default;strokeColor=#808080;align=center;verticalAlign=middle;fontFamily=宋体;fontSize=15;fontColor=default;endArrow=classicThin;endFill=1;" parent="1" source="gRTbHUQzDtAFuBZ8Pfh3-195" target="gRTbHUQzDtAFuBZ8Pfh3-199" edge="1">
          <mxGeometry relative="1" as="geometry" />
        </mxCell>
        <mxCell id="gRTbHUQzDtAFuBZ8Pfh3-217" style="edgeStyle=none;shape=connector;rounded=0;orthogonalLoop=1;jettySize=auto;html=1;exitX=1;exitY=0.5;exitDx=0;exitDy=0;entryX=0;entryY=0.5;entryDx=0;entryDy=0;labelBackgroundColor=default;strokeColor=#808080;align=center;verticalAlign=middle;fontFamily=宋体;fontSize=15;fontColor=default;endArrow=classicThin;endFill=1;" parent="1" source="gRTbHUQzDtAFuBZ8Pfh3-195" target="gRTbHUQzDtAFuBZ8Pfh3-198" edge="1">
          <mxGeometry relative="1" as="geometry" />
        </mxCell>
        <mxCell id="gRTbHUQzDtAFuBZ8Pfh3-222" style="edgeStyle=none;shape=connector;rounded=0;orthogonalLoop=1;jettySize=auto;html=1;exitX=1;exitY=0.5;exitDx=0;exitDy=0;entryX=0;entryY=0.5;entryDx=0;entryDy=0;labelBackgroundColor=default;strokeColor=#808080;align=center;verticalAlign=middle;fontFamily=宋体;fontSize=15;fontColor=default;endArrow=classicThin;endFill=1;" parent="1" source="gRTbHUQzDtAFuBZ8Pfh3-195" target="gRTbHUQzDtAFuBZ8Pfh3-197" edge="1">
          <mxGeometry relative="1" as="geometry" />
        </mxCell>
        <mxCell id="gRTbHUQzDtAFuBZ8Pfh3-195" value="" style="ellipse;whiteSpace=wrap;html=1;fontFamily=宋体;fontSize=15;fillColor=#d5e8d4;gradientColor=#97d077;strokeColor=#82b366;" parent="1" vertex="1">
          <mxGeometry x="640" y="460" width="20" height="10" as="geometry" />
        </mxCell>
        <mxCell id="gRTbHUQzDtAFuBZ8Pfh3-197" value="" style="ellipse;whiteSpace=wrap;html=1;fontFamily=宋体;fontSize=15;fillColor=#d5e8d4;gradientColor=#97d077;strokeColor=#82b366;" parent="1" vertex="1">
          <mxGeometry x="714" y="490" width="20" height="10" as="geometry" />
        </mxCell>
        <mxCell id="gRTbHUQzDtAFuBZ8Pfh3-198" value="" style="ellipse;whiteSpace=wrap;html=1;fontFamily=宋体;fontSize=15;fillColor=#d5e8d4;gradientColor=#97d077;strokeColor=#82b366;" parent="1" vertex="1">
          <mxGeometry x="734" y="470" width="20" height="10" as="geometry" />
        </mxCell>
        <mxCell id="gRTbHUQzDtAFuBZ8Pfh3-199" value="" style="ellipse;whiteSpace=wrap;html=1;fontFamily=宋体;fontSize=15;fillColor=#d5e8d4;gradientColor=#97d077;strokeColor=#82b366;" parent="1" vertex="1">
          <mxGeometry x="754" y="450" width="20" height="10" as="geometry" />
        </mxCell>
        <mxCell id="gRTbHUQzDtAFuBZ8Pfh3-200" value="" style="ellipse;whiteSpace=wrap;html=1;fontFamily=宋体;fontSize=15;fillColor=#d5e8d4;gradientColor=#97d077;strokeColor=#82b366;" parent="1" vertex="1">
          <mxGeometry x="774" y="430" width="20" height="10" as="geometry" />
        </mxCell>
        <mxCell id="gRTbHUQzDtAFuBZ8Pfh3-226" value="" style="shape=parallelogram;html=1;strokeWidth=1;perimeter=parallelogramPerimeter;whiteSpace=wrap;rounded=1;arcSize=12;size=0.5454545454545454;fontFamily=宋体;fontSize=15;fontColor=default;fillColor=none;strokeColor=#FF0000;" parent="1" vertex="1">
          <mxGeometry x="740" y="880" width="90" height="100" as="geometry" />
        </mxCell>
        <mxCell id="gRTbHUQzDtAFuBZ8Pfh3-230" value="" style="shape=parallelogram;perimeter=parallelogramPerimeter;whiteSpace=wrap;html=1;fixedSize=1;fontFamily=宋体;fontSize=15;size=120;fillColor=#dae8fc;gradientColor=#0000FF;strokeColor=#6c8ebf;gradientDirection=west;" parent="1" vertex="1">
          <mxGeometry x="870" y="410" width="150" height="120" as="geometry" />
        </mxCell>
        <mxCell id="gRTbHUQzDtAFuBZ8Pfh3-238" value="输入信号" style="text;html=1;strokeColor=none;fillColor=none;align=center;verticalAlign=middle;whiteSpace=wrap;rounded=0;fontSize=15;fontFamily=宋体;fontColor=default;" parent="1" vertex="1">
          <mxGeometry x="65.41" y="730" width="70" height="20" as="geometry" />
        </mxCell>
        <mxCell id="gRTbHUQzDtAFuBZ8Pfh3-249" style="edgeStyle=none;shape=connector;rounded=0;orthogonalLoop=1;jettySize=auto;html=1;exitX=1;exitY=0.5;exitDx=0;exitDy=0;entryX=0;entryY=0.5;entryDx=0;entryDy=0;labelBackgroundColor=default;strokeColor=#808080;align=center;verticalAlign=middle;fontFamily=Helvetica;fontSize=11;fontColor=default;endArrow=classicThin;endFill=1;" parent="1" source="gRTbHUQzDtAFuBZ8Pfh3-240" target="gRTbHUQzDtAFuBZ8Pfh3-239" edge="1">
          <mxGeometry relative="1" as="geometry" />
        </mxCell>
        <mxCell id="gRTbHUQzDtAFuBZ8Pfh3-240" value="" style="whiteSpace=wrap;html=1;aspect=fixed;fontFamily=Helvetica;fontSize=11;fillColor=none;gradientColor=#ffa500;strokeColor=#d79b00;" parent="1" vertex="1">
          <mxGeometry x="60.83" y="409.15" width="79.17" height="79.17" as="geometry" />
        </mxCell>
        <mxCell id="gRTbHUQzDtAFuBZ8Pfh3-256" value="" style="whiteSpace=wrap;html=1;aspect=fixed;fontFamily=Helvetica;fontSize=11;fillColor=#ffff88;strokeColor=#36393d;" parent="1" vertex="1">
          <mxGeometry x="330" y="520" width="20" height="20" as="geometry" />
        </mxCell>
        <mxCell id="gRTbHUQzDtAFuBZ8Pfh3-269" value="" style="endArrow=none;html=1;rounded=0;dashed=1;labelBackgroundColor=default;strokeColor=#b85450;align=center;verticalAlign=middle;fontFamily=Helvetica;fontSize=11;fontColor=default;shape=connector;edgeStyle=none;exitX=1;exitY=0;exitDx=0;exitDy=0;entryX=0.797;entryY=0;entryDx=0;entryDy=0;entryPerimeter=0;endFill=0;fillColor=#f8cecc;" parent="1" source="gRTbHUQzDtAFuBZ8Pfh3-235" target="gRTbHUQzDtAFuBZ8Pfh3-230" edge="1">
          <mxGeometry width="50" height="50" relative="1" as="geometry">
            <mxPoint x="840" y="630.8499999999999" as="sourcePoint" />
            <mxPoint x="890" y="580.8499999999999" as="targetPoint" />
          </mxGeometry>
        </mxCell>
        <mxCell id="gRTbHUQzDtAFuBZ8Pfh3-270" value="" style="endArrow=none;html=1;rounded=0;dashed=1;labelBackgroundColor=default;strokeColor=#0000CC;align=center;verticalAlign=middle;fontFamily=Helvetica;fontSize=11;fontColor=default;shape=connector;edgeStyle=none;exitX=0.33;exitY=1.002;exitDx=0;exitDy=0;entryX=0;entryY=1;entryDx=0;entryDy=0;endFill=0;exitPerimeter=0;" parent="1" source="gRTbHUQzDtAFuBZ8Pfh3-235" target="gRTbHUQzDtAFuBZ8Pfh3-230" edge="1">
          <mxGeometry width="50" height="50" relative="1" as="geometry">
            <mxPoint x="750" y="532.4999999999999" as="sourcePoint" />
            <mxPoint x="940" y="512.5" as="targetPoint" />
          </mxGeometry>
        </mxCell>
        <mxCell id="gRTbHUQzDtAFuBZ8Pfh3-271" value="&lt;font style=&quot;font-size: 15px;&quot;&gt;多层卷积池化&lt;/font&gt;" style="html=1;verticalAlign=bottom;endArrow=classicThin;curved=0;rounded=0;endFill=1;dashed=1;fontFamily=宋体;fontSize=15;" parent="1" edge="1">
          <mxGeometry width="80" relative="1" as="geometry">
            <mxPoint x="440" y="379.15000000000003" as="sourcePoint" />
            <mxPoint x="540" y="379.15000000000003" as="targetPoint" />
          </mxGeometry>
        </mxCell>
        <mxCell id="gRTbHUQzDtAFuBZ8Pfh3-276" style="edgeStyle=none;shape=connector;rounded=0;orthogonalLoop=1;jettySize=auto;html=1;exitX=0;exitY=1;exitDx=0;exitDy=0;entryX=0;entryY=1;entryDx=0;entryDy=0;dashed=1;labelBackgroundColor=default;strokeColor=#808080;align=center;verticalAlign=middle;fontFamily=宋体;fontSize=15;fontColor=default;endArrow=none;endFill=0;" parent="1" source="gRTbHUQzDtAFuBZ8Pfh3-274" target="gRTbHUQzDtAFuBZ8Pfh3-75" edge="1">
          <mxGeometry relative="1" as="geometry" />
        </mxCell>
        <mxCell id="gRTbHUQzDtAFuBZ8Pfh3-287" style="edgeStyle=none;shape=connector;rounded=0;orthogonalLoop=1;jettySize=auto;html=1;exitX=0;exitY=0;exitDx=0;exitDy=0;entryX=0;entryY=1;entryDx=0;entryDy=0;dashed=1;labelBackgroundColor=default;strokeColor=#0000CC;align=center;verticalAlign=middle;fontFamily=Helvetica;fontSize=11;fontColor=default;endArrow=none;endFill=0;" parent="1" source="gRTbHUQzDtAFuBZ8Pfh3-55" target="gRTbHUQzDtAFuBZ8Pfh3-273" edge="1">
          <mxGeometry relative="1" as="geometry" />
        </mxCell>
        <mxCell id="gRTbHUQzDtAFuBZ8Pfh3-289" style="edgeStyle=none;shape=connector;rounded=0;orthogonalLoop=1;jettySize=auto;html=1;exitX=1;exitY=0;exitDx=0;exitDy=0;entryX=0.848;entryY=0.5;entryDx=0;entryDy=0;entryPerimeter=0;dashed=1;labelBackgroundColor=default;strokeColor=#b85450;align=center;verticalAlign=middle;fontFamily=Helvetica;fontSize=11;fontColor=default;endArrow=none;endFill=0;fillColor=#f8cecc;" parent="1" source="gRTbHUQzDtAFuBZ8Pfh3-59" target="gRTbHUQzDtAFuBZ8Pfh3-76" edge="1">
          <mxGeometry relative="1" as="geometry" />
        </mxCell>
        <mxCell id="gRTbHUQzDtAFuBZ8Pfh3-288" style="edgeStyle=none;shape=connector;rounded=0;orthogonalLoop=1;jettySize=auto;html=1;exitX=1;exitY=0;exitDx=0;exitDy=0;entryX=1;entryY=1;entryDx=0;entryDy=0;dashed=1;labelBackgroundColor=default;strokeColor=#0000CC;align=center;verticalAlign=middle;fontFamily=Helvetica;fontSize=11;fontColor=default;endArrow=none;endFill=0;" parent="1" source="gRTbHUQzDtAFuBZ8Pfh3-57" target="gRTbHUQzDtAFuBZ8Pfh3-74" edge="1">
          <mxGeometry relative="1" as="geometry" />
        </mxCell>
        <mxCell id="gRTbHUQzDtAFuBZ8Pfh3-75" value="" style="rounded=0;whiteSpace=wrap;html=1;direction=south;fillColor=#b1ddf0;strokeColor=#10739e;fontFamily=宋体;fontSize=15;" parent="1" vertex="1">
          <mxGeometry x="340" y="430" width="20" height="120" as="geometry" />
        </mxCell>
        <mxCell id="gRTbHUQzDtAFuBZ8Pfh3-74" value="" style="shape=process;whiteSpace=wrap;html=1;backgroundOutline=1;size=0.3333333333333333;direction=south;fillColor=#ffe6cc;strokeColor=#d79b00;fontFamily=宋体;fontSize=15;" parent="1" vertex="1">
          <mxGeometry x="330" y="500" width="20" height="60" as="geometry" />
        </mxCell>
        <mxCell id="gRTbHUQzDtAFuBZ8Pfh3-273" value="" style="shape=process;whiteSpace=wrap;html=1;backgroundOutline=1;size=0.3333333333333333;direction=south;fillColor=#ffe6cc;strokeColor=#d79b00;fontFamily=宋体;fontSize=15;" parent="1" vertex="1">
          <mxGeometry x="330" y="440" width="20" height="60" as="geometry" />
        </mxCell>
        <mxCell id="gRTbHUQzDtAFuBZ8Pfh3-76" value="" style="shape=process;whiteSpace=wrap;html=1;backgroundOutline=1;size=0.3333333333333333;direction=south;fillColor=#ffe6cc;strokeColor=#d79b00;fontFamily=宋体;fontSize=15;" parent="1" vertex="1">
          <mxGeometry x="370" y="460" width="20" height="60" as="geometry" />
        </mxCell>
        <mxCell id="gRTbHUQzDtAFuBZ8Pfh3-274" value="" style="shape=process;whiteSpace=wrap;html=1;backgroundOutline=1;size=0.3333333333333333;direction=south;fillColor=#ffe6cc;strokeColor=#d79b00;fontFamily=宋体;fontSize=15;" parent="1" vertex="1">
          <mxGeometry x="370" y="400" width="20" height="60" as="geometry" />
        </mxCell>
        <mxCell id="gRTbHUQzDtAFuBZ8Pfh3-279" style="edgeStyle=none;shape=connector;rounded=0;orthogonalLoop=1;jettySize=auto;html=1;exitX=0;exitY=0;exitDx=0;exitDy=0;entryX=0;entryY=1;entryDx=0;entryDy=0;dashed=1;labelBackgroundColor=default;strokeColor=#0000CC;align=center;verticalAlign=middle;fontFamily=Helvetica;fontSize=11;fontColor=default;endArrow=none;endFill=0;" parent="1" source="gRTbHUQzDtAFuBZ8Pfh3-273" target="gRTbHUQzDtAFuBZ8Pfh3-233" edge="1">
          <mxGeometry relative="1" as="geometry" />
        </mxCell>
        <mxCell id="gRTbHUQzDtAFuBZ8Pfh3-277" style="edgeStyle=none;shape=connector;rounded=0;orthogonalLoop=1;jettySize=auto;html=1;exitX=0;exitY=0;exitDx=0;exitDy=0;entryX=0;entryY=0;entryDx=0;entryDy=0;dashed=1;labelBackgroundColor=default;strokeColor=#808080;align=center;verticalAlign=middle;fontFamily=宋体;fontSize=15;fontColor=default;endArrow=none;endFill=0;" parent="1" source="gRTbHUQzDtAFuBZ8Pfh3-274" target="gRTbHUQzDtAFuBZ8Pfh3-75" edge="1">
          <mxGeometry relative="1" as="geometry" />
        </mxCell>
        <mxCell id="gRTbHUQzDtAFuBZ8Pfh3-293" style="edgeStyle=none;shape=connector;rounded=0;orthogonalLoop=1;jettySize=auto;html=1;exitX=1;exitY=0.5;exitDx=0;exitDy=0;entryX=0;entryY=0.5;entryDx=0;entryDy=0;labelBackgroundColor=default;strokeColor=#808080;align=center;verticalAlign=middle;fontFamily=Helvetica;fontSize=11;fontColor=default;endArrow=classicThin;endFill=1;" parent="1" source="gRTbHUQzDtAFuBZ8Pfh3-239" target="gRTbHUQzDtAFuBZ8Pfh3-292" edge="1">
          <mxGeometry relative="1" as="geometry" />
        </mxCell>
      </root>
    </mxGraphModel>
  </diagram>
</mxfile>
